<svg xmlns="http://www.w3.org/2000/svg" xmlns:xlink="http://www.w3.org/1999/xlink" width="1920" zoomAndPan="magnify" viewBox="0 0 1440 809.999993" height="1080" preserveAspectRatio="xMidYMid meet" version="1.0"><defs><clipPath id="05e11bc2e5"><path d="M 532.148438 95 L 860 95 L 860 716 L 532.148438 716 Z M 532.148438 95 " clip-rule="nonzero"/></clipPath></defs><rect x="-144" width="1728" fill="#ffffff" y="-80.999999" height="971.999992" fill-opacity="1"/><rect x="-144" width="1728" fill="#ffffff" y="-80.999999" height="971.999992" fill-opacity="1"/><path fill="#fffaf2" d="M 854.074219 360.734375 C 853.226562 366.34375 848.703125 378.277344 835.019531 390.582031 L 835.101562 390.582031 C 827.074219 495.574219 809.125 636.515625 801.429688 670.171875 C 787.984375 728.957031 598.234375 718.292969 592.3125 670.171875 C 579.550781 566.414062 558.519531 444.433594 555.128906 396.96875 C 544.136719 389.28125 537.914062 380.914062 537.476562 372.753906 C 536.796875 360.164062 536.996094 343.320312 551.273438 344.320312 L 551.660156 344.300781 C 547.242188 309.804688 561.933594 266.8125 590.367188 240.242188 C 619.082031 213.40625 651.746094 204.242188 689.261719 205.511719 C 692.394531 196.449219 695.675781 189.492188 699.121094 185.074219 C 723.214844 154.164062 778.261719 120.328125 800.171875 102.320312 C 814.347656 90.667969 844.125 125.25 826.191406 139.992188 C 804.703125 157.648438 762.546875 182.507812 743.050781 206.414062 C 741.632812 208.148438 740.253906 210.3125 738.902344 212.832031 C 813.039062 233.328125 833.15625 290.898438 834.292969 328.765625 C 843.90625 326.75 856.910156 341.980469 854.074219 360.734375 Z M 854.074219 360.734375 " fill-opacity="1" fill-rule="nonzero"/><path fill="#d6b8e0" d="M 725.734375 321.816406 C 720.847656 320.578125 715.113281 322.4375 712.640625 326.871094 C 712.640625 325.707031 712.636719 324.535156 712.597656 323.367188 C 712.511719 320.65625 712.234375 317.957031 711.3125 315.417969 C 710 311.78125 707.09375 308.476562 703.292969 307.792969 C 698.289062 306.894531 693.441406 310.886719 691.597656 315.632812 C 689.75 320.375 690.167969 325.664062 690.613281 330.734375 C 686.46875 327.507812 682.148438 324.195312 677.035156 323.019531 C 673.867188 322.289062 670.308594 322.625 667.464844 324.082031 C 667.3125 322.78125 666.972656 321.5 666.390625 320.300781 C 666.375 320.273438 666.359375 320.25 666.34375 320.222656 C 663.488281 314.460938 655.386719 311.820312 649.972656 315.292969 C 651.796875 311.886719 653.652344 308.394531 654.207031 304.570312 C 654.761719 300.746094 653.757812 296.457031 650.734375 294.0625 C 646.742188 290.898438 640.589844 292.132812 636.722656 295.441406 C 632.859375 298.753906 630.734375 303.609375 628.734375 308.292969 C 626.605469 303.492188 624.355469 298.527344 620.402344 295.074219 C 616.449219 291.617188 610.269531 290.117188 605.898438 293.027344 C 601.621094 295.875 600.546875 301.96875 602.03125 306.894531 C 603.519531 311.816406 606.996094 315.84375 610.382812 319.714844 C 604.0625 317.839844 597.273438 315.96875 591 317.984375 C 584.722656 319.996094 579.863281 327.667969 583.214844 333.347656 C 584.964844 336.320312 588.351562 337.890625 591.636719 338.929688 C 601.277344 341.976562 611.878906 341.898438 621.476562 338.707031 C 621.1875 339.25 620.957031 339.8125 620.753906 340.382812 C 618.960938 345.4375 620.464844 351.507812 624.351562 355.527344 C 625.117188 354.269531 626.015625 353.082031 626.996094 351.992188 C 632.164062 346.234375 640.820312 343.824219 648.152344 343.722656 C 647.4375 340.835938 645.792969 338.234375 643.285156 336.621094 C 643.207031 336.570312 643.136719 336.507812 643.054688 336.460938 C 643.132812 336.515625 643.21875 336.566406 643.296875 336.621094 C 648.519531 340.261719 655.9375 340.773438 661.273438 337.300781 C 661.808594 336.953125 662.304688 336.554688 662.78125 336.132812 C 663.480469 338.367188 664.769531 340.472656 666.414062 342.121094 C 670.046875 345.753906 670.117188 346.960938 674.925781 348.769531 C 671.484375 349.484375 669.320312 350.464844 667.351562 351.941406 C 665.628906 353.230469 664.054688 354.898438 661.917969 357.109375 C 657.332031 361.851562 656.671875 370.910156 662.304688 374.335938 C 665.246094 376.125 668.972656 375.910156 672.359375 375.273438 C 674.511719 374.867188 676.636719 374.304688 678.710938 373.609375 C 686.21875 371.089844 693.113281 366.734375 698.558594 360.980469 C 698.5625 367.84375 704.429688 374.058594 711.539062 375.019531 C 718.644531 375.980469 726.261719 371.082031 727.746094 364.0625 C 729.230469 357.042969 723.683594 349.175781 716.523438 348.796875 C 722.925781 349.671875 729.863281 346.601562 732.980469 340.933594 C 733.09375 340.722656 733.191406 340.503906 733.296875 340.289062 C 730.097656 336.34375 727.574219 331.757812 726.414062 326.863281 C 726.027344 325.214844 725.75 323.507812 725.734375 321.816406 Z M 635.554688 326.355469 C 633.03125 330.277344 626.839844 330.078125 624.71875 325.851562 C 622.769531 322.320312 624.75 317.257812 629.105469 317.1875 C 629.554688 317.046875 629.996094 317.082031 630.390625 317.238281 C 631.894531 317.082031 633.449219 317.714844 634.566406 318.742188 C 636.851562 320.714844 637.058594 323.652344 635.554688 326.355469 Z M 699.597656 351.609375 C 691.585938 351.320312 691.53125 339.722656 699.597656 339.402344 C 707.609375 339.6875 707.664062 351.285156 699.597656 351.609375 Z M 788.792969 462.050781 C 789.65625 463.910156 788.722656 465.910156 788.636719 467.8125 C 788.316406 470.1875 788.003906 472.5625 787.664062 474.933594 C 786.699219 481.609375 785.417969 488.242188 784.300781 494.894531 C 783.71875 498.371094 783.175781 501.851562 782.757812 505.351562 C 781.015625 519.199219 779.769531 533.09375 778.671875 547.007812 C 777.730469 558.949219 776.898438 570.902344 775.96875 582.84375 C 775.464844 588.527344 774.734375 594.199219 773.546875 599.792969 C 773.222656 601.230469 772.753906 602.660156 772.03125 603.984375 C 771.351562 605.617188 769.640625 606.910156 767.554688 607.167969 C 764.753906 607.511719 761.601562 606.054688 760.875 603.65625 C 760.578125 603.066406 760.464844 602.433594 760.546875 601.796875 C 760.546875 601.589844 760.542969 601.378906 760.539062 601.171875 C 760.332031 598.398438 761.078125 595.699219 761.445312 592.96875 C 763.605469 581.539062 764.304688 569.929688 765.695312 558.402344 C 766.488281 551.402344 767.234375 544.398438 767.953125 537.390625 C 769.015625 527.058594 770.003906 516.71875 770.933594 506.371094 C 771.066406 504.914062 771.203125 503.457031 771.332031 501.996094 C 772.78125 488.929688 775.394531 476.007812 776.703125 462.917969 C 777.210938 457.320312 786.863281 456.648438 788.792969 462.050781 Z M 804.050781 307.894531 C 804.050781 307.894531 804.050781 307.898438 804.050781 307.902344 C 804.046875 307.898438 804.046875 307.894531 804.042969 307.890625 C 803.96875 307.804688 803.886719 307.726562 803.8125 307.625 C 803.644531 307.441406 803.519531 307.234375 803.414062 307.011719 C 802.886719 306.167969 802.476562 305.25 801.953125 304.402344 C 800.515625 301.128906 798.542969 296.113281 794.910156 291.046875 C 787.730469 280.179688 779.191406 270.359375 766.445312 261.855469 C 758.90625 257.21875 763.695312 245.832031 772.296875 247.964844 C 773.582031 248.328125 774.699219 248.976562 775.644531 249.917969 C 777.28125 251.238281 778.925781 252.539062 780.546875 253.875 C 785.417969 257.855469 789.957031 262.300781 793.722656 267.351562 C 798.433594 273.636719 801.925781 280.71875 804.863281 287.980469 C 806.519531 291.679688 809.714844 300.964844 809.492188 304.78125 C 810.4375 308.027344 806.1875 310.289062 804.050781 307.894531 Z M 817.941406 330.492188 C 817.800781 331.996094 817.582031 333.554688 816.769531 334.769531 C 814.769531 338.269531 809.679688 339.253906 807.175781 335.785156 C 806.394531 334.871094 806.042969 333.726562 805.980469 332.550781 C 805.871094 332.210938 805.769531 331.867188 805.691406 331.519531 C 805.140625 329.070312 805.070312 326.554688 805.152344 324.054688 C 805.34375 318.289062 812.773438 317.621094 814.617188 322.066406 C 817.519531 323.402344 819.351562 326.90625 817.941406 330.492188 Z M 590.941406 278.316406 C 587.472656 285.46875 585.9375 289.371094 581.296875 298.121094 C 580.9375 298.835938 580.582031 299.554688 580.230469 300.277344 C 580.164062 300.402344 580.03125 300.683594 579.949219 300.851562 C 579.6875 301.425781 579.242188 301.886719 578.707031 302.242188 C 577.308594 303.09375 575.3125 302.574219 574.515625 301.140625 C 574.292969 300.789062 574.171875 300.410156 574.152344 300 C 574.0625 299.59375 574.078125 299.1875 574.207031 298.78125 C 574.035156 300 574.199219 298.960938 574.273438 298.335938 C 574.976562 294.015625 575.527344 289.652344 576.691406 285.429688 C 577.925781 280.457031 579.984375 275.71875 582.246094 271.136719 C 583.917969 268.164062 585.839844 265.335938 587.949219 262.660156 C 588.386719 262.105469 588.390625 262.105469 588.238281 262.304688 C 588.390625 262.117188 588.539062 261.925781 588.703125 261.753906 C 591.371094 258.84375 594.394531 256.296875 597.570312 253.964844 C 597.792969 253.796875 597.859375 253.75 597.847656 253.761719 C 597.886719 253.730469 597.90625 253.714844 597.890625 253.726562 C 599.652344 252.34375 601.449219 251.007812 603.246094 249.667969 C 606.25 247.835938 610.066406 251.160156 608.566406 254.355469 C 608.023438 255.777344 606.53125 256.574219 605.535156 257.664062 C 604.023438 259.054688 602.5625 260.492188 601.230469 262.050781 C 598.691406 264.796875 594.039062 271.921875 590.941406 278.316406 Z M 590.941406 278.316406 " fill-opacity="1" fill-rule="nonzero"/><path fill="#eb8d96" d="M 792.089844 549.394531 C 790.503906 549.863281 788.816406 550.144531 787.160156 550.054688 C 785.441406 549.960938 783.882812 549.414062 782.257812 548.929688 C 780.914062 548.527344 779.742188 547.84375 778.671875 547.007812 C 777.730469 558.949219 776.898438 570.902344 775.96875 582.84375 C 775.464844 588.527344 774.734375 594.199219 773.546875 599.792969 C 773.222656 601.230469 772.753906 602.660156 772.03125 603.984375 C 771.351562 605.617188 769.640625 606.910156 767.554688 607.167969 C 764.753906 607.511719 761.601562 606.054688 760.875 603.65625 C 760.578125 603.066406 760.464844 602.433594 760.546875 601.796875 C 760.546875 601.589844 760.542969 601.378906 760.539062 601.171875 C 760.332031 598.398438 761.078125 595.699219 761.445312 592.96875 C 763.605469 581.539062 764.304688 569.929688 765.695312 558.402344 C 766.488281 551.402344 767.234375 544.398438 767.953125 537.390625 C 766.527344 536.804688 765.03125 536.394531 763.476562 536.277344 C 758.738281 535.925781 754.089844 537.519531 749.980469 539.757812 C 741.996094 544.113281 735.519531 551.625 726.285156 553.441406 C 711.722656 556.308594 699.378906 545.667969 687.414062 539.191406 C 681.945312 536.226562 675.574219 533.585938 669.226562 534.738281 C 665.394531 535.4375 661.953125 537.253906 658.863281 539.574219 C 655.457031 542.128906 652.304688 545.136719 648.375 546.890625 C 643.894531 548.890625 639.082031 549.371094 634.304688 548.242188 C 630.460938 547.335938 626.855469 545.589844 623.394531 543.667969 C 625.28125 553.96875 627.230469 564.261719 628.945312 573.417969 C 630.71875 583.382812 632.488281 590.195312 631.9375 597.03125 C 631.933594 597.082031 631.929688 597.117188 631.921875 597.160156 C 631.921875 598.0625 631.671875 598.949219 631.246094 599.78125 C 629.925781 602.125 626.65625 602.992188 624.363281 601.585938 C 623.324219 600.976562 622.523438 599.996094 622.140625 598.851562 C 621.992188 598.460938 621.867188 598.054688 621.710938 597.664062 C 620.769531 595.230469 619.828125 592.773438 619.390625 590.191406 C 616.148438 572.890625 612.332031 555.691406 609.347656 538.34375 C 608.746094 538.234375 608.144531 538.140625 607.539062 538.066406 C 603.648438 537.589844 599.617188 537.859375 596.140625 539.714844 C 596.183594 540.035156 596.226562 540.359375 596.265625 540.679688 C 596.347656 541.285156 596.425781 541.898438 596.503906 542.503906 C 596.820312 544.925781 597.136719 547.359375 597.449219 549.800781 C 597.535156 550.457031 597.621094 551.109375 597.707031 551.765625 C 597.914062 553.367188 598.117188 554.972656 598.324219 556.578125 C 598.636719 558.996094 598.949219 561.417969 599.257812 563.847656 C 599.269531 563.957031 599.285156 564.066406 599.300781 564.171875 C 599.535156 566.015625 599.769531 567.859375 600.003906 569.707031 C 600.019531 569.851562 600.039062 570 600.058594 570.144531 C 600.347656 572.410156 600.628906 574.679688 600.914062 576.949219 C 601.148438 578.792969 601.378906 580.636719 601.609375 582.484375 C 601.664062 582.910156 601.714844 583.335938 601.769531 583.765625 C 602.089844 586.347656 602.410156 588.929688 602.726562 591.515625 C 603.011719 593.839844 603.296875 596.160156 603.578125 598.484375 C 603.910156 601.199219 604.238281 603.914062 604.5625 606.628906 C 604.574219 606.714844 604.585938 606.808594 604.597656 606.894531 C 604.820312 608.773438 605.042969 610.644531 605.261719 612.519531 C 605.539062 614.851562 605.816406 617.1875 606.085938 619.515625 C 606.308594 621.421875 606.53125 623.324219 606.75 625.226562 C 607.027344 627.625 607.296875 630.011719 607.570312 632.394531 C 607.769531 634.160156 607.96875 635.925781 608.167969 637.683594 C 608.179688 637.777344 608.1875 637.871094 608.199219 637.96875 C 608.550781 641.136719 608.898438 644.289062 609.242188 647.429688 C 609.324219 648.191406 609.410156 648.964844 609.492188 649.722656 C 609.808594 652.644531 610.738281 655.425781 612.203125 658.058594 C 612.285156 658.203125 612.386719 658.34375 612.46875 658.488281 C 612.765625 658.996094 613.066406 659.503906 613.402344 660.003906 C 616.867188 665.117188 622.40625 669.621094 629.421875 673.460938 C 674.144531 697.925781 778.871094 695.261719 788.015625 649.722656 C 791.089844 634.410156 797.585938 592.578125 803.625 543.660156 C 803.625 543.660156 803.625 543.660156 803.621094 543.660156 C 799.867188 545.777344 796.234375 548.167969 792.089844 549.394531 Z M 624.179688 635.035156 C 624.183594 635.046875 624.183594 635.058594 624.1875 635.070312 Z M 625.460938 624.210938 C 628.214844 619.570312 634.246094 618.964844 637.898438 622.910156 C 638.339844 623.359375 638.714844 623.871094 639.019531 624.425781 C 639.003906 624.386719 638.988281 624.347656 638.972656 624.3125 C 639 624.375 639.027344 624.4375 639.058594 624.496094 C 639.21875 624.796875 639.355469 625.109375 639.472656 625.425781 C 639.816406 626.207031 640.132812 627 640.347656 627.824219 C 641.121094 630.675781 641.359375 633.695312 640.8125 636.609375 C 639.679688 645.015625 631.304688 647.539062 627.003906 639.722656 C 626.820312 639.332031 626.664062 638.9375 626.519531 638.539062 C 626.285156 638.363281 626.0625 638.171875 625.855469 637.957031 C 625.050781 637.152344 624.476562 636.132812 624.179688 635.035156 C 624.179688 635.035156 624.179688 635.03125 624.179688 635.03125 C 624.039062 634.503906 623.957031 633.957031 623.957031 633.410156 C 623.9375 633.242188 623.910156 633.074219 623.890625 632.90625 C 623.527344 629.949219 623.957031 626.796875 625.460938 624.210938 Z M 666.390625 320.300781 C 666.972656 321.5 667.3125 322.78125 667.464844 324.082031 C 670.308594 322.625 673.871094 322.289062 677.035156 323.019531 C 682.152344 324.195312 686.472656 327.507812 690.617188 330.734375 C 690.167969 325.664062 689.75 320.375 691.597656 315.632812 C 693.441406 310.886719 698.289062 306.894531 703.296875 307.792969 C 707.097656 308.476562 710 311.78125 711.316406 315.417969 C 712.234375 317.957031 712.511719 320.652344 712.597656 323.367188 C 719.894531 273.769531 728.503906 232.1875 738.902344 212.832031 C 740.253906 210.3125 741.636719 208.148438 743.050781 206.414062 C 762.550781 182.507812 804.707031 157.652344 826.191406 139.992188 C 844.125 125.25 814.347656 90.671875 800.171875 102.320312 C 778.261719 120.328125 723.214844 154.164062 699.121094 185.074219 C 695.675781 189.492188 692.394531 196.453125 689.261719 205.511719 C 680.613281 230.53125 673.089844 271.667969 666.34375 320.222656 C 666.359375 320.25 666.375 320.273438 666.390625 320.300781 Z M 773.898438 146.238281 C 774.539062 144.367188 776.371094 143.238281 777.632812 141.792969 C 779.632812 139.722656 781.785156 137.820312 783.894531 135.871094 C 785.472656 134.476562 786.851562 132.695312 788.984375 132.171875 C 791.539062 131.460938 794.65625 132.351562 796.148438 134.613281 C 798.007812 136.675781 797.960938 139.835938 796.679688 142.1875 C 795.324219 144.488281 792.707031 145.480469 790.636719 147.027344 C 788.273438 148.890625 786.039062 150.917969 783.757812 152.886719 C 779.09375 157.535156 771.199219 152.277344 773.898438 146.238281 Z M 707.683594 204.082031 C 709.101562 199.824219 711.605469 196.050781 714.457031 192.621094 C 720.796875 185.140625 728.789062 179.28125 736.460938 173.257812 C 741.792969 169.207031 745.171875 166.515625 752.519531 161.089844 C 754.335938 159.789062 756.179688 158.539062 758 157.246094 C 760.394531 155.167969 763.335938 154.347656 765.863281 156.730469 C 767.550781 158.4375 767.894531 161.433594 766.25 163.28125 C 765.914062 163.816406 765.445312 164.214844 764.902344 164.539062 C 764.726562 164.675781 764.546875 164.816406 764.371094 164.957031 C 755.15625 171.933594 743.113281 182.394531 731.527344 192.191406 C 725.015625 197.621094 721.335938 201.1875 718.804688 206.253906 C 716.246094 211.074219 714.746094 215.796875 712.832031 223.847656 C 711.484375 228.8125 704.03125 228.335938 703.484375 223.207031 C 703.195312 221.972656 703.757812 220.738281 703.933594 219.511719 C 704.292969 217.738281 704.671875 215.96875 705.105469 214.214844 C 705.972656 210.835938 706.578125 207.394531 707.683594 204.082031 Z M 622.289062 360.792969 C 622.617188 358.917969 623.367188 357.160156 624.355469 355.527344 C 625.117188 354.269531 626.019531 353.082031 627 351.992188 C 632.164062 346.234375 640.820312 343.824219 648.152344 343.722656 C 651.511719 343.675781 654.589844 344.109375 656.925781 344.929688 C 660.3125 346.121094 663.988281 348.609375 667.351562 351.941406 C 665.628906 353.230469 664.058594 354.898438 661.917969 357.109375 C 657.335938 361.851562 656.671875 370.90625 662.304688 374.332031 C 665.25 376.125 668.972656 375.910156 672.359375 375.273438 C 674.511719 374.867188 676.636719 374.304688 678.714844 373.605469 C 678.773438 374.054688 678.847656 374.5 678.886719 374.953125 C 679.121094 377.832031 679.027344 380.824219 677.863281 383.46875 C 676.699219 386.117188 674.277344 388.351562 671.402344 388.621094 C 666.597656 389.070312 662.738281 384.242188 657.925781 383.875 C 654.664062 383.625 651.660156 385.464844 648.722656 386.910156 C 645.785156 388.355469 642.164062 389.425781 639.351562 387.746094 C 634.96875 385.132812 635.863281 378.136719 632.289062 374.492188 C 630.316406 372.488281 627.3125 371.855469 625.183594 370.019531 C 622.628906 367.824219 621.710938 364.117188 622.289062 360.792969 Z M 726.417969 326.863281 C 726.027344 325.214844 725.75 323.507812 725.734375 321.816406 C 725.722656 320.625 725.835938 319.441406 726.148438 318.285156 C 726.898438 315.496094 728.957031 312.921875 731.757812 312.21875 C 736.441406 311.050781 740.984375 315.242188 745.792969 314.878906 C 749.058594 314.632812 751.75 312.363281 754.4375 310.492188 C 757.125 308.621094 760.542969 307.015625 763.578125 308.25 C 768.304688 310.175781 768.46875 317.230469 772.554688 320.289062 C 774.800781 321.976562 777.867188 322.152344 780.25 323.640625 C 783.105469 325.429688 784.570312 328.957031 784.5 332.328125 C 784.429688 335.699219 783.019531 338.921875 781.167969 341.738281 C 781.058594 341.90625 780.933594 342.054688 780.820312 342.214844 C 776.597656 348.234375 768.929688 351.746094 762.011719 353.003906 C 762.273438 350.300781 762.496094 342.410156 756.242188 341.734375 C 750.417969 341.109375 747.308594 345.339844 745.964844 350.78125 C 741.515625 348.464844 736.964844 344.804688 733.296875 340.285156 C 730.097656 336.339844 727.574219 331.753906 726.417969 326.863281 Z M 726.417969 326.863281 " fill-opacity="1" fill-rule="nonzero"/><path fill="#ffd9dd" d="M 816.757812 377.929688 C 816.757812 404.003906 814.6875 436.472656 811.621094 469.925781 C 805.789062 467.21875 798.230469 471.074219 794.292969 475.414062 C 792.859375 476.992188 791.921875 478.988281 790.992188 480.894531 C 790.027344 482.875 789.15625 484.898438 788.265625 486.914062 C 787.0625 489.636719 785.8125 492.339844 784.300781 494.894531 C 785.417969 488.242188 786.699219 481.609375 787.664062 474.933594 C 788.003906 472.5625 788.316406 470.1875 788.636719 467.8125 C 788.722656 465.910156 789.65625 463.910156 788.792969 462.050781 C 786.863281 456.648438 777.210938 457.320312 776.703125 462.917969 C 775.394531 476.003906 772.78125 488.925781 771.332031 501.996094 C 771.203125 503.453125 771.066406 504.914062 770.933594 506.371094 C 767.1875 507.722656 763.109375 508.292969 759.0625 508.214844 C 750.109375 508.042969 741.578125 505.121094 733.332031 501.878906 C 723.714844 498.097656 713.652344 493.109375 703.046875 493.660156 C 693.261719 494.171875 685.441406 500.328125 676.902344 504.355469 C 672.753906 506.3125 668.375 507.699219 663.769531 507.914062 C 659.457031 508.117188 655.136719 507.273438 651.128906 505.707031 C 642.78125 502.453125 635.757812 496.648438 628.832031 491.117188 C 624.125 487.355469 619.265625 483.777344 613.976562 480.976562 C 613.21875 474.648438 612.421875 468.324219 611.5625 462.011719 C 611.027344 457.914062 610.453125 453.820312 609.769531 449.746094 C 609.25 447.671875 609.539062 445.195312 608.082031 443.503906 C 604.660156 438.867188 597.230469 442.550781 598.75 448.160156 C 600.09375 456.648438 601.15625 466.328125 602.15625 476.511719 C 597.316406 475.472656 592.34375 475.441406 587.808594 477.074219 L 576.261719 385.90625 C 575.257812 375.699219 577.65625 367.511719 582.5625 360.9375 C 582.628906 371.195312 607.234375 380.457031 610.988281 377.671875 C 616.246094 373.777344 624.851562 345.316406 614.492188 342.007812 C 616.53125 341.425781 618.617188 340.882812 620.753906 340.382812 C 618.960938 345.4375 620.464844 351.507812 624.355469 355.527344 C 623.367188 357.160156 622.617188 358.917969 622.289062 360.792969 C 621.710938 364.117188 622.628906 367.824219 625.183594 370.019531 C 627.3125 371.855469 630.316406 372.488281 632.289062 374.492188 C 635.863281 378.136719 634.96875 385.132812 639.351562 387.746094 C 642.164062 389.425781 645.785156 388.355469 648.722656 386.910156 C 651.660156 385.464844 654.664062 383.625 657.925781 383.875 C 662.738281 384.242188 666.597656 389.070312 671.402344 388.621094 C 674.277344 388.351562 676.699219 386.117188 677.863281 383.46875 C 679.027344 380.824219 679.121094 377.832031 678.886719 374.953125 C 678.851562 374.5 678.773438 374.054688 678.714844 373.605469 C 686.21875 371.089844 693.113281 366.734375 698.558594 360.980469 C 698.5625 367.84375 704.433594 374.058594 711.539062 375.019531 C 718.644531 375.976562 726.261719 371.082031 727.746094 364.0625 C 729.234375 357.039062 723.683594 349.175781 716.523438 348.796875 C 722.925781 349.667969 729.867188 346.601562 732.980469 340.933594 C 733.097656 340.722656 733.191406 340.503906 733.296875 340.285156 C 736.960938 344.808594 741.515625 348.46875 745.964844 350.78125 C 743.921875 359.0625 745.976562 370.148438 748.851562 371.226562 C 754.976562 373.519531 787.304688 366.386719 782.023438 356.378906 C 777.832031 348.445312 761.902344 353.917969 761.902344 353.917969 C 761.902344 353.917969 761.957031 353.566406 762.011719 353.003906 C 768.929688 351.746094 776.597656 348.234375 780.816406 342.214844 C 802.132812 348.539062 816.757812 359.476562 816.757812 377.929688 Z M 648.152344 343.722656 C 651.511719 343.675781 654.589844 344.109375 656.925781 344.929688 C 660.3125 346.121094 663.988281 348.609375 667.351562 351.941406 C 669.320312 350.464844 671.484375 349.484375 674.929688 348.769531 C 670.121094 346.957031 670.046875 345.753906 666.414062 342.117188 C 664.769531 340.472656 663.484375 338.363281 662.78125 336.132812 C 662.308594 336.554688 661.808594 336.953125 661.273438 337.300781 C 655.9375 340.773438 648.519531 340.261719 643.296875 336.617188 C 643.292969 336.617188 643.292969 336.621094 643.289062 336.621094 C 645.792969 338.234375 647.441406 340.835938 648.152344 343.722656 Z M 605.15625 345.15625 C 599.097656 347.550781 593.726562 350.46875 589.300781 354.027344 C 594.195312 353.921875 599.773438 357.722656 599.773438 357.722656 C 599.773438 357.722656 600.984375 349.871094 605.15625 345.15625 Z M 605.15625 345.15625 " fill-opacity="0.6" fill-rule="nonzero"/><path fill="#ffd9dd" d="M 759.0625 508.214844 C 763.109375 508.292969 767.1875 507.722656 770.933594 506.371094 C 770.003906 516.714844 769.015625 527.058594 767.953125 537.390625 C 766.527344 536.800781 765.03125 536.394531 763.476562 536.277344 C 758.738281 535.921875 754.089844 537.519531 749.980469 539.757812 C 741.996094 544.113281 735.519531 551.625 726.285156 553.441406 C 711.722656 556.304688 699.378906 545.667969 687.414062 539.1875 C 681.945312 536.226562 675.574219 533.585938 669.226562 534.738281 C 665.394531 535.433594 661.953125 537.253906 658.863281 539.574219 C 655.457031 542.128906 652.304688 545.136719 648.375 546.890625 C 643.894531 548.890625 639.082031 549.371094 634.304688 548.242188 C 630.460938 547.335938 626.855469 545.585938 623.394531 543.664062 C 620.261719 526.558594 617.304688 509.441406 615.871094 497.515625 C 615.269531 492 614.636719 486.484375 613.976562 480.972656 C 619.265625 483.773438 624.125 487.355469 628.832031 491.113281 C 635.757812 496.644531 642.78125 502.453125 651.128906 505.707031 C 655.136719 507.269531 659.457031 508.117188 663.769531 507.914062 C 668.375 507.699219 672.753906 506.3125 676.902344 504.355469 C 685.441406 500.328125 693.261719 494.171875 703.046875 493.660156 C 713.652344 493.109375 723.714844 498.09375 733.332031 501.878906 C 741.578125 505.121094 750.109375 508.042969 759.0625 508.214844 Z M 602.15625 476.511719 C 597.316406 475.472656 592.34375 475.441406 587.808594 477.074219 C 590.476562 496.941406 593.367188 518.464844 596.265625 540.679688 C 596.226562 540.359375 596.183594 540.035156 596.140625 539.714844 C 599.617188 537.859375 603.648438 537.589844 607.539062 538.066406 C 608.144531 538.140625 608.746094 538.234375 609.347656 538.34375 C 608.402344 532.84375 607.535156 527.332031 606.800781 521.792969 C 604.925781 506.964844 603.601562 491.210938 602.15625 476.511719 Z M 811.621094 469.925781 C 805.789062 467.21875 798.230469 471.074219 794.292969 475.414062 C 792.859375 476.992188 791.921875 478.988281 790.992188 480.894531 C 790.027344 482.875 789.15625 484.898438 788.265625 486.914062 C 787.0625 489.636719 785.8125 492.339844 784.300781 494.894531 C 783.71875 498.371094 783.175781 501.851562 782.757812 505.351562 C 781.015625 519.199219 779.769531 533.09375 778.671875 547.007812 C 779.742188 547.84375 780.914062 548.527344 782.257812 548.925781 C 783.882812 549.414062 785.441406 549.960938 787.160156 550.054688 C 788.816406 550.144531 790.503906 549.863281 792.089844 549.394531 C 796.234375 548.167969 799.867188 545.777344 803.621094 543.65625 C 803.699219 543.003906 803.78125 542.351562 803.859375 541.699219 C 803.929688 541.148438 803.996094 540.59375 804.0625 540.039062 C 804.167969 539.183594 804.269531 538.328125 804.375 537.472656 C 804.425781 537.054688 804.476562 536.632812 804.527344 536.214844 C 804.722656 534.582031 804.921875 532.941406 805.113281 531.296875 C 805.167969 530.859375 805.21875 530.421875 805.269531 529.980469 C 805.378906 529.066406 805.488281 528.152344 805.59375 527.230469 C 805.644531 526.789062 805.695312 526.347656 805.75 525.90625 C 805.949219 524.183594 806.148438 522.453125 806.347656 520.71875 C 806.390625 520.371094 806.429688 520.023438 806.46875 519.675781 C 806.578125 518.726562 806.6875 517.773438 806.792969 516.824219 C 806.839844 516.402344 806.890625 515.980469 806.9375 515.558594 C 807.285156 512.480469 807.625 509.386719 807.964844 506.285156 C 808.007812 505.875 808.050781 505.464844 808.097656 505.054688 C 808.4375 501.921875 808.769531 498.785156 809.097656 495.640625 C 809.132812 495.28125 809.171875 494.917969 809.210938 494.558594 C 809.316406 493.527344 809.421875 492.5 809.527344 491.46875 C 809.546875 491.296875 809.5625 491.125 809.578125 490.953125 C 809.785156 488.933594 809.988281 486.914062 810.191406 484.898438 C 810.21875 484.589844 810.25 484.28125 810.28125 483.972656 C 810.378906 482.964844 810.480469 481.960938 810.578125 480.957031 C 810.613281 480.597656 810.648438 480.242188 810.679688 479.890625 C 810.871094 477.917969 811.058594 475.945312 811.242188 473.976562 C 811.261719 473.785156 811.28125 473.597656 811.296875 473.410156 C 811.390625 472.414062 811.480469 471.421875 811.574219 470.429688 C 811.589844 470.265625 811.605469 470.097656 811.621094 469.925781 Z M 614.492188 342.007812 C 613.945312 341.832031 613.355469 341.707031 612.695312 341.683594 C 609.484375 341.554688 607.023438 343.042969 605.15625 345.152344 C 600.984375 349.871094 599.773438 357.71875 599.773438 357.71875 C 599.773438 357.71875 594.195312 353.917969 589.300781 354.023438 C 587.378906 354.066406 585.5625 354.710938 584.226562 356.425781 C 583.054688 357.925781 582.550781 359.441406 582.5625 360.933594 C 582.628906 371.195312 607.234375 380.453125 610.988281 377.667969 C 616.246094 373.777344 624.851562 345.316406 614.492188 342.007812 Z M 748.851562 371.226562 C 754.976562 373.519531 787.304688 366.386719 782.023438 356.378906 C 777.832031 348.445312 761.902344 353.917969 761.902344 353.917969 C 761.902344 353.917969 761.957031 353.566406 762.011719 353.003906 C 762.273438 350.300781 762.492188 342.410156 756.242188 341.738281 C 750.417969 341.113281 747.308594 345.339844 745.964844 350.78125 C 743.921875 359.0625 745.976562 370.148438 748.851562 371.226562 Z M 748.851562 371.226562 " fill-opacity="1" fill-rule="nonzero"/><g clip-path="url(#05e11bc2e5)"><path fill="#bb7953" d="M 848.453125 329.273438 C 845.421875 326.492188 842.074219 324.726562 838.761719 324.089844 C 838.132812 314.65625 836.4375 304.550781 833.429688 294.65625 C 825.71875 269.261719 804.421875 228.480469 746.234375 210.074219 C 746.402344 209.855469 746.566406 209.625 746.734375 209.421875 C 759.382812 193.910156 782.273438 177.707031 802.453125 163.425781 C 812.496094 156.320312 821.984375 149.601562 829.207031 143.664062 C 835.015625 138.890625 837.492188 131.921875 836.179688 124.035156 C 834.296875 112.617188 824.511719 100.566406 813.910156 96.574219 C 807.617188 94.207031 801.671875 94.9375 797.164062 98.644531 C 790.894531 103.789062 781.851562 110.273438 771.386719 117.773438 C 745.324219 136.457031 712.871094 159.707031 695.378906 182.144531 C 692.160156 186.277344 689.035156 192.425781 685.976562 200.671875 C 684.839844 200.652344 683.714844 200.636719 682.605469 200.636719 C 643.84375 200.636719 613.503906 212.117188 587.125 236.769531 C 559.332031 262.738281 543.671875 304.402344 546.414062 339.890625 C 543.519531 340.480469 541.015625 341.789062 538.941406 343.835938 C 532.449219 350.230469 532.121094 361.636719 532.730469 373.007812 C 533.222656 382.136719 539.472656 391.234375 550.554688 399.484375 C 552.632812 425.898438 559.511719 472.507812 567.433594 526.222656 C 574.160156 571.796875 581.78125 623.453125 587.597656 670.753906 C 590.925781 697.789062 639.898438 712.328125 686.960938 714.742188 C 691.757812 714.988281 696.585938 715.113281 701.410156 715.113281 C 750.5625 715.113281 799.003906 702.085938 806.058594 671.234375 C 814.109375 636.03125 831.78125 495.21875 839.699219 392.765625 C 855.421875 378.027344 858.308594 364.519531 858.773438 361.445312 C 860.601562 349.339844 856.550781 336.714844 848.453125 329.273438 Z M 662.511719 245.746094 C 660.957031 245.417969 659.4375 245.066406 657.949219 244.691406 C 657.746094 244.636719 657.539062 244.582031 657.335938 244.53125 C 655.914062 244.164062 654.515625 243.777344 653.160156 243.367188 C 653.132812 243.359375 653.105469 243.351562 653.078125 243.34375 C 646.503906 241.347656 643.152344 239.296875 641.664062 237.820312 C 640.984375 237.148438 640.695312 236.597656 640.65625 236.226562 C 640.574219 235.367188 641.886719 233.816406 643.359375 233.035156 C 652.535156 228.179688 664.421875 225.34375 678.75 224.566406 C 677 231.464844 675.269531 239.125 673.542969 247.574219 C 669.769531 247.09375 666.117188 246.496094 662.632812 245.769531 C 662.59375 245.761719 662.550781 245.753906 662.511719 245.746094 Z M 736.511719 231.003906 C 740.984375 232.765625 743.292969 234.910156 744.152344 236.714844 C 744.457031 237.355469 744.582031 237.953125 744.554688 238.472656 C 744.4375 240.886719 741.546875 243.226562 737.359375 244.292969 C 736.839844 244.425781 736.304688 244.554688 735.75 244.6875 C 735.710938 244.695312 735.671875 244.707031 735.628906 244.714844 C 734.566406 244.964844 733.441406 245.210938 732.269531 245.449219 C 733.675781 240.113281 735.089844 235.289062 736.511719 231.003906 Z M 702.859375 187.996094 C 719.519531 166.636719 751.34375 143.835938 776.921875 125.5 C 787.523438 117.910156 796.679688 111.339844 803.183594 105.996094 C 805.015625 104.496094 807.492188 104.3125 810.566406 105.476562 C 818.035156 108.277344 825.480469 117.488281 826.816406 125.585938 C 827.558594 130.109375 826.332031 133.71875 823.175781 136.324219 C 816.214844 142.039062 806.875 148.660156 796.976562 155.664062 C 776.289062 170.292969 752.84375 186.894531 739.363281 203.410156 C 733.195312 210.964844 727.46875 225.285156 721.972656 247.160156 C 713.90625 248.242188 704.53125 248.949219 694.707031 248.910156 C 693.210938 248.902344 691.726562 248.882812 690.257812 248.839844 C 689.886719 248.832031 689.519531 248.820312 689.148438 248.804688 C 687.46875 248.75 685.804688 248.675781 684.15625 248.574219 C 684.019531 248.566406 683.878906 248.554688 683.742188 248.546875 C 683.5 248.53125 683.269531 248.507812 683.03125 248.492188 C 689.539062 216.660156 696.109375 196.660156 702.859375 187.996094 Z M 593.609375 243.71875 C 618.117188 220.8125 646.398438 210.144531 682.605469 210.144531 C 682.660156 210.144531 682.71875 210.144531 682.777344 210.144531 C 682.296875 211.695312 681.816406 213.285156 681.339844 214.945312 C 664.242188 215.53125 649.984375 218.773438 638.917969 224.628906 C 637.335938 225.46875 635.78125 226.65625 634.480469 228.109375 C 632.75 230.042969 631.476562 232.445312 631.207031 235.097656 C 631.140625 235.761719 631.136719 236.441406 631.203125 237.136719 C 631.832031 243.71875 638.085938 248.726562 650.316406 252.445312 C 651.972656 252.945312 653.671875 253.417969 655.414062 253.859375 C 660.777344 255.230469 666.242188 256.242188 671.699219 256.964844 C 668.507812 273.742188 665.347656 293.257812 662.183594 315.699219 C 663.964844 316.828125 665.464844 318.390625 666.394531 320.296875 C 666.976562 321.5 667.308594 322.777344 667.460938 324.082031 C 668.488281 323.558594 669.601562 323.1875 670.765625 322.953125 C 674.234375 297.808594 677.695312 276.179688 681.171875 257.933594 C 685.9375 258.292969 690.65625 258.472656 695.234375 258.472656 C 701.527344 258.472656 707.558594 258.171875 713.15625 257.691406 C 713.207031 257.6875 713.253906 257.679688 713.304688 257.675781 C 714.054688 257.613281 714.808594 257.546875 715.542969 257.472656 C 716.917969 257.34375 718.277344 257.199219 719.621094 257.046875 C 716.1875 272.246094 712.835938 290.488281 709.511719 312.015625 C 710.269531 313.058594 710.875 314.210938 711.308594 315.414062 C 712.632812 319.046875 712.648438 323 712.648438 326.867188 C 713.75 324.898438 715.496094 323.433594 717.527344 322.527344 C 721.511719 295.65625 725.59375 273.332031 729.746094 255.601562 C 732.578125 255.113281 735.273438 254.566406 737.808594 253.96875 C 738.3125 253.851562 738.78125 253.734375 739.246094 253.621094 C 739.398438 253.582031 739.554688 253.546875 739.703125 253.507812 C 741.277344 253.109375 742.753906 252.582031 744.117188 251.945312 C 744.449219 251.789062 744.765625 251.621094 745.082031 251.453125 C 745.199219 251.390625 745.324219 251.335938 745.4375 251.273438 C 750.578125 248.445312 753.804688 243.96875 754.046875 238.929688 C 754.378906 231.9375 749.066406 225.699219 739.796875 222.085938 C 740.3125 220.835938 740.828125 219.652344 741.34375 218.542969 C 797.007812 235.445312 817.136719 273.691406 824.339844 297.417969 C 827.65625 308.328125 829.144531 318.566406 829.515625 327.472656 C 829.285156 328.246094 829.230469 329.078125 829.433594 329.917969 C 829.472656 330.089844 829.542969 330.238281 829.601562 330.398438 C 829.84375 346.273438 826.539062 357.339844 824.109375 359.394531 C 786.574219 391.105469 733.8125 397.761719 696.160156 397.761719 C 625.082031 397.761719 565.46875 374.722656 559.964844 359.191406 C 547.632812 324.378906 562.722656 272.578125 593.609375 243.71875 Z M 796.796875 669.113281 C 790.316406 697.460938 735.566406 707.714844 687.445312 705.246094 C 637.277344 702.671875 599.253906 687.675781 597.027344 669.59375 C 591.195312 622.179688 583.5625 570.464844 576.832031 524.835938 C 569.617188 475.941406 563.277344 432.96875 560.667969 406.019531 C 566.332031 409.226562 572.785156 412.25 579.964844 415.03125 C 610.148438 426.71875 650.152344 433.15625 692.605469 433.15625 C 750.835938 433.15625 795.539062 423.285156 825.480469 403.816406 C 826.890625 402.902344 828.222656 401.980469 829.515625 401.0625 C 820.828125 508.675781 803.824219 638.398438 796.796875 669.113281 Z M 849.378906 360.023438 C 849.089844 361.945312 845.808594 379.265625 820.304688 395.847656 C 791.929688 414.292969 748.964844 423.648438 692.605469 423.648438 C 651.296875 423.648438 612.511719 417.4375 583.390625 406.160156 C 573.589844 402.367188 565.207031 398.054688 558.605469 393.539062 C 558.136719 393.027344 557.5625 392.621094 556.914062 392.351562 C 547.84375 385.792969 542.558594 378.863281 542.21875 372.496094 C 541.960938 367.679688 541.269531 354.878906 545.605469 350.609375 C 546.03125 350.191406 546.652344 349.710938 547.625 349.390625 C 548.429688 353.871094 549.539062 358.21875 551.011719 362.367188 C 559.339844 385.867188 628.519531 407.269531 696.160156 407.269531 C 735.394531 407.269531 790.503906 400.222656 830.234375 366.664062 C 835.441406 362.265625 838.792969 349.78125 839.027344 334.160156 C 840.011719 334.660156 841.03125 335.363281 842.027344 336.28125 C 846.460938 340.351562 851.046875 349.011719 849.378906 360.023438 Z M 849.378906 360.023438 " fill-opacity="1" fill-rule="nonzero"/></g></svg>