<svg xmlns="http://www.w3.org/2000/svg" xmlns:xlink="http://www.w3.org/1999/xlink" width="1920" zoomAndPan="magnify" viewBox="0 0 1440 809.999993" height="1080" preserveAspectRatio="xMidYMid meet" version="1.0"><defs><clipPath id="a52e22dfdd"><path d="M 484 116 L 926 116 L 926 704.265625 L 484 704.265625 Z M 484 116 " clip-rule="nonzero"/></clipPath></defs><rect x="-144" width="1728" fill="#ffffff" y="-80.999999" height="971.999992" fill-opacity="1"/><rect x="-144" width="1728" fill="#ffffff" y="-80.999999" height="971.999992" fill-opacity="1"/><path fill="#ab295a" d="M 755.421875 497.125 C 747.84375 494.285156 740.558594 492.789062 733.652344 492.433594 C 734.042969 491.710938 734.433594 490.988281 734.800781 490.265625 C 734.839844 490.203125 734.863281 490.144531 734.902344 490.09375 C 735.269531 489.359375 735.621094 488.636719 735.964844 487.902344 C 736.332031 487.128906 736.675781 486.371094 737.007812 485.597656 C 737.324219 484.863281 737.628906 484.101562 737.9375 483.367188 C 738.046875 483.0625 738.15625 482.742188 738.28125 482.4375 C 738.476562 481.945312 738.660156 481.433594 738.832031 480.941406 C 739.113281 480.15625 739.382812 479.375 739.625 478.589844 C 739.625 478.566406 739.640625 478.554688 739.652344 478.527344 C 739.894531 477.746094 740.128906 476.972656 740.347656 476.1875 C 740.582031 475.402344 740.777344 474.621094 740.972656 473.835938 C 741.351562 472.339844 741.683594 470.820312 741.964844 469.300781 C 741.976562 469.21875 742 469.144531 742.015625 469.058594 C 742.148438 468.359375 742.269531 467.648438 742.382812 466.949219 C 742.417969 466.71875 742.441406 466.472656 742.480469 466.238281 C 742.578125 465.578125 742.664062 464.917969 742.75 464.253906 C 742.835938 463.554688 742.90625 462.859375 742.96875 462.160156 C 743.066406 461.167969 743.140625 460.175781 743.191406 459.195312 C 743.238281 458.570312 743.261719 457.933594 743.289062 457.308594 C 743.289062 457.074219 743.300781 456.855469 743.3125 456.632812 C 743.3125 455.972656 743.324219 455.3125 743.324219 454.648438 C 743.324219 435.550781 736.542969 417.046875 724.800781 403.558594 C 725.128906 402.738281 725.449219 401.917969 725.753906 401.085938 C 725.9375 401.171875 726.097656 401.28125 726.269531 401.367188 C 732.660156 404.894531 738.339844 409.601562 743.175781 415.160156 C 761.285156 435.953125 767.617188 468.726562 755.421875 497.125 Z M 755.421875 497.125 " fill-opacity="1" fill-rule="nonzero"/><path fill="#ab295a" d="M 655.21875 544.074219 C 652.304688 550.800781 650.296875 558.054688 649.316406 565.539062 L 588.941406 590.042969 C 588.21875 590.128906 587.546875 590.179688 586.871094 590.179688 L 586.8125 590.179688 C 586.800781 590.179688 586.800781 590.179688 586.785156 590.179688 C 586.773438 590.179688 586.773438 590.179688 586.761719 590.179688 C 574.140625 590.3125 567.183594 578.578125 566.351562 577.070312 C 567.234375 578.476562 568.996094 579.054688 570.550781 578.429688 Z M 655.21875 544.074219 " fill-opacity="1" fill-rule="nonzero"/><path fill="#ab295a" d="M 586.824219 590.167969 C 587.507812 590.351562 588.242188 590.324219 588.941406 590.03125 " fill-opacity="1" fill-rule="nonzero"/><path fill="#feb2cf" d="M 682.472656 504.453125 L 648.925781 389.835938 C 646.253906 391.0625 643.5625 392.445312 640.832031 394.015625 C 637.625 395.867188 634.367188 397.949219 631.074219 400.277344 C 624.09375 382.375 614.640625 369.121094 603.929688 359.882812 C 603.929688 359.882812 603.917969 359.871094 603.902344 359.882812 C 594.269531 351.5625 583.617188 346.515625 572.769531 344.261719 C 571.652344 344.027344 570.539062 343.832031 569.425781 343.660156 C 568.433594 343.511719 567.429688 343.378906 566.425781 343.28125 C 566.21875 343.242188 566.007812 343.21875 565.789062 343.207031 C 564.710938 343.097656 563.644531 343.023438 562.582031 342.972656 C 562.042969 342.949219 561.515625 342.925781 560.988281 342.914062 C 560.179688 342.902344 559.386719 342.890625 558.589844 342.914062 C 558.285156 342.902344 557.976562 342.914062 557.671875 342.925781 L 557.488281 342.925781 C 557.390625 342.925781 557.28125 342.925781 557.167969 342.9375 C 557.109375 342.9375 557.070312 342.9375 557.011719 342.949219 C 556.496094 342.960938 555.980469 342.972656 555.453125 343.011719 C 554.820312 343.046875 554.183594 343.097656 553.53125 343.160156 C 553.105469 343.195312 552.6875 343.230469 552.257812 343.28125 C 552.050781 343.304688 551.832031 343.328125 551.621094 343.355469 C 506.222656 348.585938 467.863281 399.382812 502.488281 461.730469 L 566.265625 576.910156 C 566.265625 576.910156 566.277344 576.921875 566.277344 576.960938 C 566.304688 576.996094 566.328125 577.03125 566.351562 577.070312 C 567.234375 578.476562 568.996094 579.054688 570.550781 578.429688 L 655.21875 544.074219 C 658.253906 537.03125 662.28125 530.550781 667.167969 524.9375 C 672.003906 519.375 677.683594 514.683594 684.078125 511.15625 C 684.246094 511.058594 684.417969 510.957031 684.589844 510.871094 C 683.808594 508.777344 683.097656 506.644531 682.472656 504.453125 Z M 623.410156 484.089844 C 620.910156 492.59375 613.40625 498.300781 605.042969 498.878906 L 600.71875 539.222656 L 573.183594 531.160156 L 590.816406 494.480469 C 584.09375 489.152344 581.070312 479.914062 584.226562 471.214844 C 587.730469 461.535156 598.089844 455.875 608.117188 458.128906 C 619.84375 460.800781 626.726562 472.722656 623.410156 484.089844 Z M 623.410156 484.089844 " fill-opacity="1" fill-rule="nonzero"/><path fill="#feb2cf" d="M 640.832031 394.015625 C 637.625 395.867188 634.367188 397.949219 631.074219 400.277344 C 624.09375 382.375 614.640625 369.121094 603.929688 359.882812 C 617.726562 365.824219 630.679688 376.875 640.832031 394.015625 Z M 640.832031 394.015625 " fill-opacity="1" fill-rule="nonzero"/><path fill="#bbbdbf" d="M 773.492188 238.773438 L 771.976562 243.929688 L 765.964844 264.515625 L 727.882812 394.675781 C 727.25 396.859375 726.539062 398.988281 725.753906 401.085938 C 725.449219 401.917969 725.128906 402.738281 724.800781 403.558594 C 723.964844 402.617188 723.109375 401.683594 722.242188 400.777344 C 721.835938 400.363281 721.433594 399.957031 721.015625 399.554688 C 720.539062 399.101562 720.046875 398.632812 719.570312 398.191406 C 719.546875 398.167969 719.535156 398.15625 719.511719 398.144531 C 719.191406 397.851562 718.875 397.570312 718.554688 397.285156 C 718.222656 396.992188 717.882812 396.699219 717.527344 396.40625 C 716.839844 395.816406 716.128906 395.253906 715.421875 394.714844 C 715.015625 394.394531 714.601562 394.089844 714.183594 393.78125 C 713.925781 393.597656 713.667969 393.414062 713.414062 393.230469 C 712.863281 392.839844 712.3125 392.460938 711.746094 392.105469 C 711.441406 391.882812 711.109375 391.6875 710.792969 391.492188 C 710.351562 391.210938 709.898438 390.929688 709.445312 390.660156 C 708.945312 390.351562 708.417969 390.058594 707.890625 389.765625 C 707.976562 389.480469 708.074219 389.1875 708.160156 388.894531 L 747.292969 255.09375 L 753.070312 235.34375 L 753.757812 232.988281 C 764.789062 195.265625 743.105469 155.609375 705.40625 144.570312 C 667.707031 133.519531 628.074219 155.226562 617.042969 192.953125 L 572.769531 344.261719 C 571.652344 344.027344 570.539062 343.832031 569.425781 343.660156 C 568.433594 343.511719 567.429688 343.378906 566.425781 343.28125 C 566.21875 343.242188 566.007812 343.21875 565.789062 343.207031 C 564.710938 343.097656 563.644531 343.023438 562.582031 342.972656 C 562.042969 342.949219 561.515625 342.925781 560.988281 342.914062 C 560.179688 342.890625 559.386719 342.890625 558.589844 342.914062 C 558.285156 342.902344 557.976562 342.914062 557.671875 342.925781 L 557.488281 342.925781 C 557.390625 342.925781 557.28125 342.925781 557.167969 342.9375 C 557.109375 342.9375 557.070312 342.9375 557.011719 342.949219 C 556.496094 342.960938 555.980469 342.972656 555.453125 343.011719 C 554.820312 343.046875 554.183594 343.085938 553.53125 343.160156 C 553.105469 343.195312 552.6875 343.230469 552.257812 343.28125 C 552.050781 343.292969 551.832031 343.316406 551.621094 343.34375 L 597.304688 187.167969 C 611.53125 138.554688 662.601562 110.59375 711.183594 124.820312 C 759.753906 139.054688 787.707031 190.15625 773.492188 238.773438 Z M 773.492188 238.773438 " fill-opacity="1" fill-rule="nonzero"/><path fill="#000000" d="M 623.410156 484.089844 C 620.910156 492.59375 613.40625 498.300781 605.042969 498.878906 L 600.71875 539.222656 L 573.183594 531.160156 L 590.816406 494.480469 C 584.09375 489.152344 581.070312 479.914062 584.226562 471.214844 C 587.730469 461.535156 598.089844 455.875 608.117188 458.128906 C 619.84375 460.800781 626.726562 472.722656 623.410156 484.089844 Z M 623.410156 484.089844 " fill-opacity="1" fill-rule="nonzero"/><path fill="#ab295a" d="M 843.992188 686.859375 C 843.160156 688.363281 836.207031 700.101562 823.582031 699.953125 C 823.570312 699.96875 823.570312 699.96875 823.558594 699.953125 C 823.546875 699.96875 823.546875 699.96875 823.535156 699.953125 L 823.519531 699.953125 C 822.859375 699.953125 822.175781 699.917969 821.464844 699.832031 L 821.402344 699.832031 L 699.46875 650.335938 C 659.097656 631.945312 645.226562 596.78125 649.316406 565.539062 C 650.296875 558.054688 652.304688 550.800781 655.21875 544.074219 C 658.253906 537.03125 662.28125 530.550781 667.167969 524.9375 C 672.003906 519.375 677.683594 514.683594 684.078125 511.15625 C 684.246094 511.058594 684.417969 510.957031 684.589844 510.875 C 686.585938 509.792969 688.644531 508.816406 690.773438 507.980469 C 690.613281 508.128906 690.457031 508.261719 690.296875 508.421875 C 689.636719 509.035156 688.984375 509.660156 688.363281 510.308594 C 688.042969 510.628906 687.726562 510.957031 687.40625 511.289062 C 687.074219 511.621094 686.769531 511.964844 686.476562 512.304688 C 686.15625 512.648438 685.851562 512.992188 685.558594 513.335938 L 685.546875 513.347656 C 679.546875 520.246094 674.832031 528.464844 671.660156 537.398438 L 671.648438 537.398438 C 669.296875 544.039062 667.804688 551.070312 667.265625 558.25 C 664.9375 588.367188 679.339844 621.175781 717.855469 638.71875 L 839.792969 688.21875 C 841.347656 688.832031 843.113281 688.253906 843.992188 686.859375 Z M 843.992188 686.859375 " fill-opacity="1" fill-rule="nonzero"/><path fill="#ab295a" d="M 821.464844 699.832031 C 822.136719 700.113281 822.859375 700.140625 823.519531 699.953125 " fill-opacity="1" fill-rule="nonzero"/><path fill="#ab295a" d="M 821.453125 699.832031 C 821.441406 699.832031 821.425781 699.820312 821.414062 699.820312 " fill-opacity="1" fill-rule="nonzero"/><path fill="#ff75a9" d="M 858.722656 453.128906 C 854.5 452.640625 850.210938 452.542969 845.925781 452.875 C 844.824219 452.957031 843.710938 453.070312 842.597656 453.203125 C 842.597656 453.203125 842.597656 453.203125 842.585938 453.203125 C 841.46875 453.351562 840.355469 453.535156 839.253906 453.730469 C 838.691406 453.828125 838.140625 453.9375 837.578125 454.050781 C 826.730469 456.292969 816.078125 461.339844 806.441406 469.65625 C 806.429688 469.65625 806.417969 469.671875 806.417969 469.671875 C 795.703125 478.90625 786.25 492.164062 779.273438 510.050781 C 775.976562 507.722656 772.722656 505.640625 769.515625 503.804688 C 764.714844 501.058594 760.011719 498.855469 755.421875 497.125 C 747.84375 494.285156 740.558594 492.789062 733.652344 492.433594 C 722.058594 491.847656 711.539062 494.515625 702.464844 499.539062 C 702.464844 499.539062 702.453125 499.539062 702.453125 499.550781 C 701.941406 499.847656 701.4375 500.128906 700.925781 500.433594 C 700.886719 500.445312 700.824219 500.484375 700.789062 500.507812 C 700.300781 500.789062 699.820312 501.097656 699.355469 501.402344 C 698.855469 501.722656 698.351562 502.039062 697.863281 502.371094 C 697.839844 502.382812 697.828125 502.394531 697.800781 502.40625 C 697.324219 502.738281 696.847656 503.070312 696.371094 503.425781 C 695.890625 503.765625 695.402344 504.121094 694.925781 504.503906 C 694.507812 504.808594 694.105469 505.128906 693.699219 505.46875 C 693.160156 505.910156 692.621094 506.351562 692.082031 506.804688 C 691.65625 507.183594 691.226562 507.566406 690.808594 507.957031 C 690.796875 507.957031 690.785156 507.96875 690.773438 507.980469 C 690.613281 508.128906 690.457031 508.261719 690.296875 508.421875 C 689.636719 509.035156 688.984375 509.660156 688.363281 510.308594 C 688.042969 510.628906 687.726562 510.957031 687.40625 511.289062 C 687.089844 511.621094 686.78125 511.964844 686.476562 512.304688 C 686.15625 512.648438 685.851562 512.992188 685.558594 513.335938 L 685.546875 513.347656 C 679.546875 520.246094 674.832031 528.464844 671.660156 537.398438 L 671.648438 537.398438 C 669.296875 544.039062 667.804688 551.070312 667.265625 558.25 C 664.9375 588.367188 679.339844 621.175781 717.855469 638.71875 L 839.792969 688.21875 C 841.347656 688.832031 843.113281 688.253906 843.992188 686.859375 C 844.015625 686.808594 844.042969 686.785156 844.066406 686.746094 C 844.066406 686.710938 844.078125 686.6875 844.078125 686.6875 L 907.855469 571.519531 C 942.480469 509.15625 904.121094 458.363281 858.722656 453.128906 Z M 809.625 649.011719 L 805.300781 608.65625 C 796.941406 608.078125 789.433594 602.382812 786.9375 593.867188 C 783.617188 582.496094 790.5 570.574219 802.230469 567.917969 C 812.257812 565.652344 822.613281 571.324219 826.128906 581.003906 C 829.289062 589.699219 826.265625 598.9375 819.53125 604.269531 L 837.160156 640.9375 Z M 809.625 649.011719 " fill-opacity="1" fill-rule="nonzero"/><path fill="#ff75a9" d="M 806.417969 469.671875 C 795.703125 478.90625 786.25 492.164062 779.273438 510.050781 C 775.976562 507.722656 772.722656 505.640625 769.515625 503.804688 C 779.664062 486.664062 792.617188 475.613281 806.417969 469.671875 Z M 806.417969 469.671875 " fill-opacity="1" fill-rule="nonzero"/><path fill="#feb2cf" d="M 743.324219 454.648438 C 743.324219 455.3125 743.3125 455.972656 743.3125 456.632812 C 743.300781 456.855469 743.289062 457.074219 743.289062 457.308594 C 743.261719 457.933594 743.238281 458.570312 743.191406 459.195312 C 743.140625 460.175781 743.066406 461.167969 742.96875 462.160156 C 742.90625 462.859375 742.835938 463.558594 742.75 464.253906 C 742.664062 464.917969 742.578125 465.578125 742.480469 466.238281 C 742.441406 466.472656 742.417969 466.71875 742.382812 466.949219 C 742.269531 467.648438 742.148438 468.359375 742.015625 469.058594 C 742.003906 469.144531 741.976562 469.21875 741.964844 469.300781 C 741.683594 470.820312 741.351562 472.339844 740.972656 473.835938 C 740.777344 474.632812 740.570312 475.402344 740.347656 476.1875 C 740.128906 476.972656 739.894531 477.746094 739.652344 478.527344 C 739.640625 478.554688 739.625 478.566406 739.625 478.589844 C 739.382812 479.375 739.113281 480.15625 738.832031 480.941406 C 738.660156 481.433594 738.476562 481.945312 738.28125 482.4375 C 738.15625 482.742188 738.046875 483.0625 737.9375 483.367188 C 737.632812 484.101562 737.324219 484.863281 737.007812 485.597656 C 736.675781 486.371094 736.332031 487.128906 735.964844 487.902344 C 735.621094 488.636719 735.269531 489.359375 734.902344 490.09375 C 734.863281 490.144531 734.839844 490.203125 734.800781 490.265625 C 734.433594 490.988281 734.042969 491.710938 733.652344 492.433594 C 722.058594 491.847656 711.539062 494.515625 702.464844 499.539062 C 702.367188 499.269531 702.269531 498.976562 702.199219 498.683594 L 668.527344 383.589844 C 683.367188 380.957031 696.722656 383.589844 707.890625 389.765625 C 708.417969 390.058594 708.945312 390.351562 709.445312 390.660156 C 709.898438 390.929688 710.351562 391.210938 710.792969 391.492188 C 711.109375 391.6875 711.441406 391.882812 711.746094 392.105469 C 712.3125 392.460938 712.863281 392.839844 713.414062 393.230469 C 713.667969 393.414062 713.925781 393.597656 714.183594 393.78125 C 714.601562 394.089844 715.015625 394.394531 715.421875 394.714844 C 716.128906 395.253906 716.839844 395.816406 717.527344 396.40625 C 717.882812 396.699219 718.222656 396.992188 718.554688 397.285156 C 718.875 397.570312 719.191406 397.851562 719.511719 398.144531 C 719.535156 398.15625 719.546875 398.167969 719.570312 398.191406 C 720.046875 398.632812 720.539062 399.101562 721.015625 399.554688 C 721.433594 399.957031 721.835938 400.363281 722.242188 400.777344 C 723.109375 401.683594 723.96875 402.617188 724.800781 403.558594 C 736.542969 417.050781 743.324219 435.550781 743.324219 454.648438 Z M 743.324219 454.648438 " fill-opacity="1" fill-rule="nonzero"/><path fill="#bbbdbf" d="M 753.070312 235.34375 L 747.292969 255.09375 C 734.03125 250.695312 719.351562 250.128906 704.953125 254.34375 C 667.253906 265.394531 645.558594 305.054688 656.589844 342.777344 L 668.527344 383.589844 L 702.195312 498.683594 C 702.269531 498.976562 702.367188 499.269531 702.464844 499.539062 C 702.464844 499.539062 702.453125 499.539062 702.453125 499.550781 C 701.929688 499.835938 701.425781 500.128906 700.925781 500.433594 C 700.886719 500.445312 700.824219 500.484375 700.789062 500.507812 C 700.300781 500.789062 699.820312 501.097656 699.355469 501.402344 C 698.84375 501.707031 698.351562 502.039062 697.863281 502.371094 C 697.839844 502.382812 697.828125 502.394531 697.800781 502.40625 C 697.324219 502.738281 696.847656 503.070312 696.371094 503.425781 C 695.890625 503.765625 695.402344 504.121094 694.925781 504.503906 C 694.507812 504.808594 694.105469 505.128906 693.699219 505.46875 C 693.160156 505.910156 692.621094 506.351562 692.082031 506.804688 C 691.65625 507.183594 691.226562 507.566406 690.808594 507.957031 C 690.796875 507.957031 690.785156 507.96875 690.773438 507.980469 C 688.644531 508.816406 686.585938 509.796875 684.589844 510.875 C 683.808594 508.777344 683.097656 506.644531 682.472656 504.453125 L 648.925781 389.835938 L 636.851562 348.5625 C 622.636719 299.945312 650.589844 248.832031 699.160156 234.609375 C 717.476562 229.242188 736.148438 229.867188 753.070312 235.34375 Z M 753.070312 235.34375 " fill-opacity="1" fill-rule="nonzero"/><path fill="#bbbdbf" d="M 858.722656 453.128906 C 854.5 452.640625 850.210938 452.542969 845.925781 452.875 C 844.824219 452.957031 843.710938 453.070312 842.597656 453.203125 C 842.597656 453.203125 842.597656 453.203125 842.585938 453.203125 C 841.46875 453.351562 840.355469 453.535156 839.253906 453.730469 C 838.691406 453.828125 838.140625 453.9375 837.578125 454.050781 L 793.304688 302.726562 C 788.601562 286.640625 778.695312 273.46875 765.964844 264.515625 L 771.976562 243.929688 C 791.171875 255.386719 806.269531 273.824219 813.039062 296.957031 Z M 858.722656 453.128906 " fill-opacity="1" fill-rule="nonzero"/><path fill="#000000" d="M 837.160156 640.9375 L 809.625 649.011719 L 805.300781 608.65625 C 796.941406 608.078125 789.433594 602.382812 786.9375 593.867188 C 783.617188 582.496094 790.5 570.574219 802.230469 567.917969 C 812.257812 565.652344 822.613281 571.324219 826.128906 581.003906 C 829.289062 589.699219 826.265625 598.9375 819.53125 604.269531 Z M 837.160156 640.9375 " fill-opacity="1" fill-rule="nonzero"/><path fill="#000000" d="M 571.984375 535.277344 L 599.519531 543.339844 C 599.914062 543.449219 600.316406 543.511719 600.71875 543.511719 C 601.566406 543.511719 602.386719 543.265625 603.109375 542.789062 C 604.160156 542.078125 604.847656 540.9375 604.980469 539.675781 L 608.949219 502.628906 C 610.589844 502.261719 612.179688 501.734375 613.699219 501.058594 C 620.261719 498.132812 625.429688 492.421875 627.523438 485.292969 L 627.976562 482.558594 C 628.96875 476.628906 628.011719 470.464844 624.890625 465.332031 C 621.351562 459.511719 615.742188 455.46875 609.046875 453.9375 C 596.839844 451.195312 584.4375 457.996094 580.1875 469.742188 C 576.917969 478.75 579.097656 488.699219 585.5625 495.484375 L 569.304688 529.300781 C 568.75 530.4375 568.738281 531.75 569.253906 532.902344 C 569.769531 534.054688 570.773438 534.921875 571.984375 535.277344 Z M 594.671875 496.34375 C 595.527344 494.554688 595.074219 492.386719 593.519531 491.160156 C 587.949219 486.773438 585.832031 479.335938 588.257812 472.671875 C 591 465.089844 599.300781 460.53125 607.160156 462.308594 C 611.640625 463.324219 615.375 466.054688 617.691406 469.988281 C 619.710938 473.429688 620.394531 477.363281 619.6875 481.222656 C 619.613281 481.652344 619.492188 482.070312 619.378906 482.496094 C 619.34375 482.621094 619.332031 482.742188 619.292969 482.878906 C 617.371094 489.421875 611.53125 494.125 604.75 494.589844 C 602.679688 494.738281 601.003906 496.34375 600.78125 498.414062 L 597.011719 533.660156 L 579.246094 528.453125 Z M 594.671875 496.34375 " fill-opacity="1" fill-rule="nonzero"/><g clip-path="url(#a52e22dfdd)"><path fill="#000000" d="M 917.210938 489.125 C 907.183594 469.585938 888.546875 455.25 867.378906 450.289062 C 864.023438 449.503906 861.378906 446.929688 860.410156 443.621094 L 817.15625 295.742188 C 810.640625 273.496094 796.4375 254.542969 777.007812 242.019531 L 777.605469 239.972656 C 777.605469 239.972656 777.605469 239.972656 777.605469 239.960938 C 792.484375 189.09375 763.21875 135.589844 712.382812 120.691406 C 661.535156 105.804688 608.078125 135.085938 593.191406 185.957031 L 548.28125 339.484375 C 524.945312 343.132812 503.996094 358.191406 493.132812 379.351562 C 480.339844 404.269531 482.335938 434.261719 498.742188 463.800781 L 562.386719 578.734375 C 562.472656 578.917969 562.570312 579.101562 562.679688 579.273438 L 562.691406 579.300781 C 563.914062 581.46875 571.910156 594.46875 586.601562 594.46875 C 587.496094 594.46875 588.414062 594.417969 589.492188 594.296875 C 589.859375 594.246094 590.214844 594.148438 590.558594 594.011719 L 644.46875 572.132812 C 643.230469 600.765625 656.453125 635.4375 697.703125 654.230469 C 697.753906 654.253906 697.8125 654.28125 697.863281 654.304688 L 819.800781 703.800781 C 820.179688 703.960938 820.621094 704.058594 821.046875 704.097656 C 821.757812 704.183594 822.492188 704.230469 823.226562 704.230469 C 823.335938 704.242188 823.433594 704.242188 823.546875 704.242188 C 823.546875 704.242188 823.558594 704.242188 823.558594 704.242188 C 823.644531 704.253906 823.742188 704.242188 823.839844 704.230469 C 838.851562 704.21875 846.871094 690.496094 847.738281 688.917969 C 847.75 688.890625 847.765625 688.855469 847.777344 688.832031 C 847.851562 688.707031 847.933594 688.585938 847.996094 688.449219 L 911.601562 573.589844 C 928.011719 544.050781 930.003906 514.058594 917.210938 489.125 Z M 808.925781 298.15625 L 852.882812 448.414062 C 851.925781 448.390625 850.972656 448.390625 850.027344 448.402344 C 849.734375 448.402344 849.441406 448.402344 849.148438 448.402344 C 847.960938 448.4375 846.785156 448.488281 845.609375 448.585938 C 844.484375 448.671875 843.34375 448.78125 842.191406 448.929688 C 842.144531 448.929688 842.082031 448.941406 842.035156 448.941406 C 841.570312 449 841.089844 449.074219 840.625 449.148438 L 797.429688 301.515625 C 792.949219 286.164062 783.582031 272.539062 770.933594 262.824219 L 774.507812 250.621094 C 791.097656 262.027344 803.234375 278.714844 808.925781 298.15625 Z M 770.210938 494.824219 C 768.925781 496.660156 766.5 497.285156 764.480469 496.332031 L 764.40625 496.292969 C 762.5 495.386719 761.53125 493.207031 762.167969 491.183594 C 770.640625 464.15625 764.726562 433.367188 746.410156 412.34375 C 742.601562 407.957031 738.378906 404.160156 733.796875 401 C 732.15625 399.871094 731.433594 397.824219 731.988281 395.914062 L 732 395.878906 L 764.210938 285.769531 C 766.160156 279.117188 774.890625 277.585938 778.992188 283.171875 C 783.53125 289.359375 786.972656 296.34375 789.191406 303.929688 L 830.070312 443.671875 C 831.210938 447.554688 829.226562 451.710938 825.457031 453.179688 C 817.828125 456.132812 810.691406 460.433594 804.128906 466.019531 C 791.050781 471.777344 779.445312 481.664062 770.210938 494.824219 Z M 782.675781 492.679688 C 782.652344 492.714844 782.625 492.765625 782.601562 492.8125 C 781.671875 494.492188 780.777344 496.207031 779.910156 497.972656 C 779.894531 497.996094 779.894531 498.007812 779.882812 498.03125 C 779.003906 499.835938 778.144531 501.671875 777.324219 503.558594 C 776.699219 503.15625 776.078125 502.761719 775.453125 502.371094 C 777.71875 498.878906 780.128906 495.644531 782.675781 492.679688 Z M 747.535156 451.328125 C 747.523438 451.046875 747.511719 450.765625 747.5 450.484375 C 747.449219 449.40625 747.375 448.339844 747.292969 447.273438 C 747.292969 447.238281 747.292969 447.210938 747.277344 447.175781 C 747.179688 446.074219 747.058594 444.972656 746.910156 443.878906 C 746.875 443.609375 746.839844 443.339844 746.800781 443.070312 C 746.65625 442.03125 746.496094 440.976562 746.3125 439.933594 C 746.300781 439.886719 746.300781 439.835938 746.289062 439.789062 C 746.089844 438.699219 745.871094 437.605469 745.636719 436.527344 C 745.589844 436.285156 745.527344 436.027344 745.46875 435.78125 C 745.234375 434.753906 744.988281 433.734375 744.71875 432.71875 C 744.707031 432.65625 744.695312 432.609375 744.683594 432.546875 C 744.390625 431.46875 744.082031 430.402344 743.753906 429.335938 C 743.679688 429.117188 743.617188 428.894531 743.542969 428.675781 C 743.226562 427.660156 742.882812 426.652344 742.527344 425.660156 C 742.515625 425.613281 742.492188 425.5625 742.480469 425.527344 C 742.101562 424.472656 741.683594 423.433594 741.265625 422.390625 C 741.109375 421.988281 740.9375 421.59375 740.777344 421.191406 C 740.472656 420.417969 740.140625 419.671875 739.773438 418.9375 C 739.75 418.875 739.722656 418.8125 739.6875 418.765625 C 739.308594 417.957031 738.929688 417.160156 738.523438 416.363281 C 739.015625 416.890625 739.492188 417.417969 739.957031 417.957031 C 757.050781 437.582031 762.070312 466.753906 752.960938 491.710938 C 752.960938 491.710938 752.949219 491.710938 752.949219 491.722656 C 752.101562 491.453125 751.257812 491.195312 750.414062 490.953125 C 749.972656 490.828125 749.519531 490.707031 749.078125 490.585938 C 748.503906 490.4375 747.941406 490.289062 747.363281 490.144531 C 746.910156 490.03125 746.472656 489.921875 746.019531 489.824219 C 745.441406 489.691406 744.867188 489.578125 744.304688 489.457031 C 743.863281 489.371094 743.421875 489.285156 742.980469 489.199219 C 742.394531 489.089844 741.816406 489.003906 741.230469 488.90625 C 740.925781 488.855469 740.605469 488.796875 740.289062 488.746094 C 740.519531 488.242188 740.726562 487.753906 740.949219 487.265625 C 741.179688 486.738281 741.402344 486.199219 741.609375 485.671875 L 741.890625 484.984375 C 741.917969 484.925781 741.941406 484.863281 741.964844 484.800781 L 742.0625 484.542969 C 742.125 484.359375 742.199219 484.175781 742.257812 484.003906 C 742.480469 483.453125 742.6875 482.878906 742.859375 482.363281 C 743.140625 481.566406 743.421875 480.769531 743.667969 479.972656 C 743.691406 479.914062 743.714844 479.851562 743.726562 479.777344 C 743.984375 478.957031 744.230469 478.148438 744.4375 477.375 C 744.4375 477.363281 744.4375 477.363281 744.449219 477.351562 C 744.449219 477.339844 744.464844 477.328125 744.464844 477.316406 C 744.695312 476.484375 744.914062 475.671875 745.113281 474.863281 C 745.503906 473.296875 745.859375 471.691406 746.164062 470.074219 C 746.1875 469.976562 746.203125 469.878906 746.226562 469.78125 C 746.359375 469.058594 746.496094 468.324219 746.605469 467.574219 L 746.703125 466.828125 C 746.800781 466.140625 746.898438 465.457031 746.984375 464.746094 C 747.070312 463.996094 747.15625 463.25 747.21875 462.550781 C 747.316406 461.484375 747.402344 460.433594 747.449219 459.5 C 747.5 458.816406 747.535156 458.128906 747.558594 457.441406 C 747.558594 457.394531 747.558594 457.332031 747.558594 457.285156 C 747.558594 457.148438 747.574219 457.027344 747.585938 456.84375 C 747.585938 456.769531 747.585938 456.683594 747.585938 456.609375 L 747.597656 454.625 C 747.609375 453.535156 747.585938 452.433594 747.535156 451.328125 Z M 734.789062 479.53125 C 734.644531 479.960938 734.484375 480.414062 734.300781 480.855469 C 734.191406 481.125 734.09375 481.40625 733.996094 481.6875 L 733.6875 482.449219 C 733.492188 482.9375 733.285156 483.429688 733.074219 483.917969 C 732.769531 484.640625 732.453125 485.351562 732.097656 486.101562 C 731.789062 486.75 731.484375 487.398438 731.152344 488.046875 C 731.140625 488.058594 731.140625 488.074219 731.128906 488.085938 C 730.996094 488.085938 730.847656 488.097656 730.714844 488.085938 C 729.917969 488.085938 729.132812 488.097656 728.335938 488.121094 C 728.019531 488.132812 727.703125 488.132812 727.382812 488.160156 C 726.527344 488.195312 725.667969 488.257812 724.8125 488.328125 C 724.382812 488.367188 723.96875 488.414062 723.550781 488.464844 C 723.011719 488.527344 722.460938 488.585938 721.921875 488.660156 C 721.421875 488.734375 720.917969 488.796875 720.429688 488.882812 C 719.71875 488.992188 719.007812 489.125 718.296875 489.261719 C 717.882812 489.347656 717.464844 489.433594 717.050781 489.519531 C 716.4375 489.652344 715.824219 489.800781 715.210938 489.945312 C 714.820312 490.046875 714.441406 490.144531 714.050781 490.242188 C 713.289062 490.449219 712.53125 490.667969 711.785156 490.902344 C 711.476562 491 711.171875 491.097656 710.878906 491.195312 C 709.996094 491.492188 709.113281 491.796875 708.246094 492.128906 C 708.160156 492.164062 708.085938 492.1875 708 492.226562 C 707.035156 492.605469 706.078125 493.011719 705.125 493.425781 C 705.125 493.425781 705.125 493.425781 705.109375 493.425781 L 674.023438 387.167969 C 685.324219 386.0625 696.222656 388.234375 705.820312 393.539062 C 706.285156 393.792969 706.753906 394.0625 707.242188 394.359375 C 707.65625 394.601562 708.074219 394.859375 708.539062 395.167969 L 708.675781 395.253906 C 708.859375 395.363281 709.054688 395.472656 709.226562 395.609375 C 709.296875 395.65625 709.371094 395.707031 709.445312 395.753906 C 709.949219 396.074219 710.425781 396.40625 710.902344 396.746094 L 711.625 397.261719 C 712.003906 397.542969 712.382812 397.8125 712.8125 398.15625 C 713.460938 398.648438 714.097656 399.148438 714.773438 399.738281 C 715.089844 399.996094 715.394531 400.265625 715.691406 400.535156 C 715.984375 400.789062 716.277344 401.058594 716.582031 401.328125 C 716.632812 401.378906 716.695312 401.425781 716.742188 401.464844 C 717.121094 401.820312 717.503906 402.175781 717.882812 402.542969 L 718.003906 402.664062 C 718.382812 403.03125 718.761719 403.414062 719.117188 403.78125 C 719.9375 404.636719 720.746094 405.519531 721.542969 406.414062 C 732.648438 419.167969 739.015625 436.761719 739.015625 454.6875 L 739.003906 456.535156 C 738.988281 456.769531 738.976562 457 738.976562 457.246094 C 738.953125 457.785156 738.929688 458.347656 738.878906 459.011719 C 738.832031 459.917969 738.769531 460.847656 738.671875 461.816406 C 738.609375 462.464844 738.550781 463.117188 738.476562 463.726562 C 738.390625 464.363281 738.304688 465.003906 738.21875 465.589844 C 738.195312 465.75 738.167969 465.921875 738.144531 466.09375 L 738.121094 466.300781 C 738.023438 466.949219 737.898438 467.613281 737.777344 468.261719 C 737.777344 468.273438 737.777344 468.296875 737.765625 468.308594 C 737.753906 468.371094 737.730469 468.457031 737.714844 468.542969 C 737.445312 469.976562 737.140625 471.410156 736.773438 472.832031 C 736.589844 473.578125 736.394531 474.3125 736.1875 475.035156 C 735.988281 475.734375 735.78125 476.421875 735.5625 477.121094 C 735.539062 477.179688 735.511719 477.253906 735.5 477.328125 C 735.316406 478.039062 735.058594 478.761719 734.789062 479.53125 Z M 606.195312 356.207031 C 600.351562 351.246094 594.058594 347.3125 587.386719 344.421875 C 582.207031 342.179688 579.539062 336.40625 581.117188 330.992188 L 621.15625 194.164062 C 626.164062 177.011719 637.574219 162.835938 653.28125 154.234375 C 668.992188 145.636719 687.0625 143.664062 704.207031 148.6875 C 721.335938 153.695312 735.511719 165.117188 744.09375 180.835938 C 752.382812 196.003906 754.492188 213.386719 750.121094 230 C 733.027344 225.320312 715.089844 225.480469 697.960938 230.492188 C 647.125 245.375 617.863281 298.878906 632.738281 349.761719 L 643.070312 385.070312 C 641.824219 385.671875 642.140625 385.523438 640.878906 386.125 C 631.527344 372.402344 619.636719 362.136719 606.195312 356.207031 Z M 634.894531 392.582031 C 634.269531 392.972656 633.644531 393.367188 633.019531 393.769531 C 631.367188 389.960938 629.578125 386.332031 627.65625 382.890625 C 630.214844 385.855469 632.628906 389.089844 634.894531 392.582031 Z M 640.964844 347.359375 C 627.410156 301.023438 654.066406 252.285156 700.359375 238.722656 C 708.429688 236.359375 716.695312 235.183594 724.945312 235.183594 C 732.609375 235.183594 740.277344 236.199219 747.757812 238.234375 L 746.542969 242.386719 L 744.390625 249.75 C 731.054688 246.171875 717.097656 246.320312 703.753906 250.226562 C 663.789062 261.941406 640.792969 304 652.476562 343.980469 L 664.414062 384.777344 C 664.414062 384.777344 664.414062 384.789062 664.414062 384.789062 L 683.867188 451.304688 L 697.398438 497.554688 C 697.398438 497.566406 697.386719 497.566406 697.386719 497.578125 C 696.75 497.949219 696.148438 498.351562 695.535156 498.757812 C 695.476562 498.792969 695.414062 498.828125 695.351562 498.878906 C 694.839844 499.234375 694.3125 499.601562 693.859375 499.945312 C 693.34375 500.3125 692.820312 500.691406 692.304688 501.097656 C 691.828125 501.453125 691.375 501.808594 690.96875 502.148438 C 690.417969 502.601562 689.855469 503.054688 689.230469 503.582031 C 688.972656 503.816406 688.71875 504.046875 688.449219 504.28125 C 688.25 504.355469 688.066406 504.441406 687.871094 504.527344 C 687.699219 504.601562 687.542969 504.671875 687.371094 504.734375 C 687.273438 504.785156 687.160156 504.820312 687.0625 504.871094 C 686.917969 504.378906 686.757812 503.890625 686.609375 503.398438 C 686.597656 503.351562 686.574219 503.300781 686.5625 503.238281 Z M 737.925781 271.839844 L 708.257812 373.273438 C 706.691406 378.652344 701.121094 381.726562 695.695312 380.316406 C 690.96875 379.09375 686.097656 378.417969 681.113281 378.320312 C 675.359375 378.199219 670.3125 374.460938 668.6875 368.9375 L 660.679688 341.578125 C 650.308594 306.132812 670.707031 268.851562 706.128906 258.460938 C 712.761719 256.511719 719.570312 255.632812 726.355469 255.777344 C 734.546875 255.960938 740.226562 264 737.925781 271.839844 Z M 601.417969 188.371094 C 614.972656 142.03125 663.691406 115.371094 709.984375 128.9375 C 756.277344 142.511719 782.933594 191.234375 769.390625 237.558594 L 767.898438 242.65625 C 767.886719 242.679688 767.875 242.707031 767.875 242.71875 L 762.472656 261.21875 L 723.78125 393.464844 C 723.574219 394.1875 723.355469 394.898438 723.121094 395.621094 C 722.914062 395.425781 722.695312 395.214844 722.484375 395.03125 C 722.4375 394.984375 722.386719 394.933594 722.324219 394.898438 C 722.019531 394.617188 721.714844 394.347656 721.40625 394.078125 C 721.039062 393.746094 720.660156 393.425781 720.316406 393.144531 C 719.621094 392.546875 718.875 391.945312 718.078125 391.34375 C 717.636719 391 717.183594 390.660156 716.683594 390.289062 L 715.910156 389.738281 C 715.324219 389.324219 714.746094 388.917969 714.148438 388.539062 C 713.828125 388.320312 713.5 388.109375 713.167969 387.902344 L 713.117188 387.878906 C 713.070312 387.839844 713.019531 387.816406 712.972656 387.78125 L 753.09375 250.582031 L 757.207031 236.542969 C 757.207031 236.542969 757.207031 236.53125 757.207031 236.53125 L 757.894531 234.191406 C 769.585938 194.199219 746.59375 152.152344 706.628906 140.453125 C 687.296875 134.792969 666.898438 137.007812 649.179688 146.699219 C 631.476562 156.402344 618.597656 172.394531 612.941406 191.738281 L 569.742188 339.359375 C 568.835938 339.226562 567.917969 339.101562 567 339.015625 C 566.71875 338.96875 566.4375 338.945312 566.144531 338.917969 C 565.078125 338.808594 563.976562 338.734375 562.726562 338.675781 C 562.238281 338.648438 561.75 338.625 561.234375 338.613281 C 561.199219 338.613281 561.160156 338.613281 561.125 338.613281 C 561.113281 338.613281 561.113281 338.613281 561.097656 338.613281 C 561.074219 338.613281 561.0625 338.613281 561.050781 338.613281 C 560.230469 338.601562 559.421875 338.589844 558.601562 338.613281 C 558.429688 338.613281 558.269531 338.613281 558.101562 338.625 C 557.929688 338.625 557.769531 338.625 557.597656 338.636719 L 557.5 338.636719 C 557.488281 338.636719 557.488281 338.636719 557.476562 338.636719 Z M 647.613281 552.6875 C 647.503906 553.066406 647.394531 553.449219 647.296875 553.828125 C 647.148438 554.367188 647.015625 554.917969 646.878906 555.46875 C 646.78125 555.847656 646.683594 556.230469 646.597656 556.621094 C 646.476562 557.171875 646.351562 557.722656 646.230469 558.261719 C 646.144531 558.65625 646.058594 559.046875 645.984375 559.4375 C 645.875 559.976562 645.789062 560.515625 645.691406 561.054688 C 645.605469 561.535156 645.519531 562.011719 645.433594 562.488281 C 645.433594 562.488281 645.433594 562.488281 645.433594 562.503906 L 587.902344 585.855469 C 587.535156 585.890625 587.203125 585.902344 586.886719 585.902344 C 586.871094 585.902344 586.738281 585.902344 586.726562 585.902344 C 586.664062 585.902344 586.617188 585.902344 586.566406 585.902344 C 586.519531 585.902344 586.46875 585.902344 586.417969 585.902344 C 581.582031 585.855469 580.394531 579.078125 584.890625 577.253906 L 628.648438 559.5 L 647.90625 551.683594 C 647.796875 552.003906 647.710938 552.34375 647.613281 552.6875 Z M 652.023438 540.730469 C 652.011719 540.742188 652.011719 540.742188 651.996094 540.753906 L 575.765625 571.691406 C 572.277344 573.113281 568.273438 571.691406 566.4375 568.394531 L 506.222656 459.660156 C 491.25 432.707031 489.300781 405.582031 500.75 383.28125 C 510.753906 363.777344 530.441406 350.117188 552.113281 347.617188 L 552.738281 347.542969 C 553.128906 347.496094 553.496094 347.472656 553.925781 347.433594 C 554.523438 347.371094 555.113281 347.335938 555.75 347.300781 C 556.214844 347.261719 556.65625 347.261719 557.109375 347.25 C 557.21875 347.25 557.316406 347.238281 557.425781 347.226562 C 557.449219 347.226562 557.464844 347.226562 557.488281 347.226562 L 557.671875 347.226562 C 557.734375 347.226562 557.792969 347.226562 557.84375 347.226562 C 558.039062 347.214844 558.222656 347.203125 558.417969 347.214844 C 558.515625 347.214844 558.613281 347.214844 558.710938 347.214844 C 559.421875 347.1875 560.132812 347.1875 560.878906 347.214844 C 561.355469 347.226562 561.835938 347.25 562.371094 347.273438 C 563.4375 347.324219 564.40625 347.398438 565.347656 347.496094 C 565.410156 347.507812 565.484375 347.507812 565.554688 347.507812 C 565.605469 347.507812 565.640625 347.519531 565.679688 347.519531 C 565.789062 347.542969 565.898438 347.558594 566.007812 347.570312 C 566.941406 347.65625 567.871094 347.789062 568.777344 347.925781 C 569.339844 348.011719 569.867188 348.097656 570.390625 348.195312 C 570.90625 348.292969 571.410156 348.378906 571.898438 348.488281 C 582.574219 350.707031 592.40625 355.644531 601.113281 363.152344 C 601.1875 363.214844 601.257812 363.261719 601.320312 363.324219 C 601.664062 363.617188 602.007812 363.9375 602.335938 364.242188 C 602.644531 364.511719 602.949219 364.78125 603.253906 365.066406 C 603.609375 365.394531 603.953125 365.738281 604.308594 366.070312 C 604.613281 366.363281 604.90625 366.644531 605.214844 366.9375 C 605.558594 367.28125 605.898438 367.636719 606.230469 367.992188 C 606.523438 368.300781 606.816406 368.59375 607.113281 368.910156 C 607.441406 369.265625 607.773438 369.632812 608.101562 370.003906 C 608.386719 370.320312 608.679688 370.625 608.960938 370.957031 C 609.277344 371.324219 609.597656 371.703125 609.914062 372.085938 C 610.195312 372.414062 610.480469 372.746094 610.761719 373.089844 C 611.066406 373.46875 611.371094 373.859375 611.679688 374.253906 C 611.949219 374.609375 612.230469 374.953125 612.5 375.308594 C 612.804688 375.699219 613.085938 376.101562 613.394531 376.507812 C 613.664062 376.875 613.929688 377.230469 614.199219 377.609375 C 614.496094 378.015625 614.777344 378.429688 615.058594 378.847656 C 615.316406 379.226562 615.585938 379.59375 615.839844 379.988281 C 616.125 380.402344 616.390625 380.84375 616.675781 381.273438 C 616.929688 381.664062 617.1875 382.058594 617.433594 382.449219 C 617.703125 382.890625 617.972656 383.332031 618.242188 383.773438 C 618.484375 384.175781 618.730469 384.570312 618.976562 384.984375 C 619.246094 385.4375 619.503906 385.90625 619.757812 386.359375 C 619.992188 386.773438 620.238281 387.179688 620.457031 387.59375 C 620.714844 388.074219 620.972656 388.550781 621.230469 389.042969 C 621.449219 389.457031 621.683594 389.875 621.890625 390.289062 C 622.148438 390.792969 622.402344 391.320312 622.660156 391.835938 C 622.871094 392.25 623.078125 392.65625 623.273438 393.070312 C 623.53125 393.625 623.789062 394.1875 624.046875 394.738281 C 624.230469 395.128906 624.414062 395.523438 624.597656 395.925781 C 624.878906 396.550781 625.148438 397.1875 625.417969 397.824219 C 625.5625 398.167969 625.722656 398.511719 625.871094 398.855469 C 626.285156 399.847656 626.691406 400.851562 627.082031 401.867188 C 627.558594 403.09375 628.574219 404.039062 629.835938 404.417969 C 630.117188 404.503906 630.398438 404.539062 630.691406 404.578125 C 630.753906 404.578125 630.828125 404.589844 630.890625 404.589844 C 630.949219 404.589844 631.011719 404.601562 631.074219 404.601562 C 631.292969 404.601562 631.527344 404.578125 631.746094 404.539062 C 631.769531 404.539062 631.796875 404.527344 631.808594 404.527344 C 632.066406 404.476562 632.320312 404.40625 632.566406 404.308594 C 632.640625 404.28125 632.703125 404.257812 632.773438 404.222656 C 633.042969 404.109375 633.300781 403.976562 633.535156 403.804688 C 636.65625 401.597656 639.828125 399.566406 642.949219 397.765625 C 644.039062 397.140625 645.128906 396.539062 646.230469 395.964844 L 678.347656 505.679688 C 678.664062 506.78125 678.996094 507.871094 679.363281 508.972656 C 678.628906 509.425781 677.894531 509.90625 677.171875 510.382812 C 676.949219 510.53125 676.742188 510.6875 676.523438 510.835938 C 675.996094 511.203125 675.46875 511.570312 674.941406 511.953125 C 674.660156 512.160156 674.378906 512.378906 674.097656 512.589844 C 673.644531 512.929688 673.203125 513.273438 672.761719 513.628906 C 672.46875 513.863281 672.175781 514.109375 671.894531 514.351562 C 671.476562 514.695312 671.0625 515.050781 670.644531 515.417969 C 670.351562 515.675781 670.070312 515.921875 669.789062 516.179688 C 669.371094 516.546875 668.96875 516.9375 668.5625 517.316406 C 668.292969 517.574219 668.023438 517.820312 667.769531 518.078125 C 667.328125 518.507812 666.898438 518.945312 666.46875 519.386719 C 666.25 519.621094 666.027344 519.839844 665.808594 520.074219 C 665.171875 520.746094 664.535156 521.445312 663.921875 522.15625 C 663.296875 522.867188 662.699219 523.601562 662.097656 524.335938 C 661.890625 524.59375 661.707031 524.851562 661.5 525.109375 C 661.105469 525.601562 660.726562 526.101562 660.347656 526.605469 C 660.117188 526.910156 659.894531 527.230469 659.675781 527.535156 C 659.34375 528 659 528.464844 658.683594 528.933594 C 658.449219 529.261719 658.230469 529.605469 658.007812 529.949219 C 657.703125 530.414062 657.398438 530.867188 657.101562 531.332031 C 656.882812 531.6875 656.664062 532.042969 656.441406 532.398438 C 656.160156 532.863281 655.867188 533.34375 655.597656 533.820312 C 655.390625 534.1875 655.179688 534.554688 654.972656 534.921875 C 654.703125 535.402344 654.433594 535.890625 654.175781 536.382812 C 653.980469 536.75 653.785156 537.117188 653.601562 537.496094 C 653.34375 538 653.085938 538.511719 652.84375 539.015625 C 652.574219 539.566406 652.292969 540.144531 652.023438 540.730469 Z M 823.949219 695.667969 C 823.902344 695.667969 823.851562 695.667969 823.804688 695.667969 C 823.730469 695.667969 823.65625 695.667969 823.570312 695.667969 C 823.558594 695.667969 823.546875 695.667969 823.535156 695.667969 C 823.152344 695.65625 822.773438 695.65625 822.40625 695.617188 L 701.132812 646.390625 C 660.714844 627.9375 650.039062 592.8125 653.539062 566.09375 C 653.652344 565.210938 653.785156 564.328125 653.933594 563.457031 C 654.089844 562.503906 654.273438 561.546875 654.472656 560.601562 C 655.523438 555.480469 657.078125 550.519531 659.136719 545.777344 C 662.023438 539.078125 665.808594 533.011719 670.386719 527.757812 C 670.839844 527.230469 671.304688 526.726562 671.785156 526.222656 C 671.671875 526.445312 671.574219 526.679688 671.476562 526.898438 C 671.050781 527.78125 670.609375 528.636719 670.230469 529.53125 C 669.960938 530.144531 669.691406 530.746094 669.433594 531.371094 C 668.84375 532.765625 668.269531 534.1875 667.753906 535.632812 C 667.753906 535.644531 667.742188 535.671875 667.730469 535.683594 C 667.683594 535.78125 667.644531 535.878906 667.609375 535.988281 C 665.109375 543.046875 663.554688 550.433594 662.992188 557.945312 C 660.164062 594.554688 680.011719 626.222656 716.082031 642.652344 C 716.128906 642.679688 716.191406 642.703125 716.242188 642.726562 L 825.480469 687.066406 C 829.960938 688.855469 828.785156 695.617188 823.949219 695.667969 Z M 904.109375 569.4375 L 845.390625 675.488281 C 842.707031 680.316406 836.855469 682.398438 831.738281 680.316406 L 719.558594 634.777344 C 717.625 633.894531 715.75 632.960938 713.914062 631.980469 C 684.898438 616.496094 669.164062 589.46875 671.539062 558.570312 C 672.039062 551.917969 673.398438 545.375 675.589844 539.113281 C 675.628906 539.027344 675.664062 538.929688 675.703125 538.832031 C 676.082031 537.777344 676.472656 536.738281 676.890625 535.707031 C 679.828125 528.492188 683.878906 521.800781 688.730469 516.226562 C 688.753906 516.191406 688.789062 516.164062 688.816406 516.128906 C 689.070312 515.824219 689.339844 515.527344 689.621094 515.222656 C 689.636719 515.210938 689.695312 515.136719 689.707031 515.125 C 689.964844 514.832031 690.222656 514.546875 690.492188 514.265625 C 690.785156 513.960938 691.09375 513.640625 691.445312 513.285156 C 692.011719 512.699219 692.609375 512.121094 693.210938 511.570312 C 693.246094 511.535156 693.296875 511.496094 693.332031 511.460938 L 693.515625 511.289062 C 693.601562 511.226562 693.675781 511.15625 693.75 511.082031 C 694.128906 510.726562 694.53125 510.371094 694.851562 510.089844 C 695.378906 509.648438 695.890625 509.21875 696.480469 508.742188 C 696.808594 508.460938 697.128906 508.203125 697.472656 507.957031 C 697.519531 507.921875 697.558594 507.894531 697.59375 507.859375 C 698.011719 507.527344 698.449219 507.210938 698.929688 506.867188 C 699.332031 506.558594 699.734375 506.277344 700.140625 505.996094 C 700.175781 505.972656 700.226562 505.949219 700.261719 505.921875 C 700.640625 505.667969 701.023438 505.410156 701.425781 505.175781 C 701.523438 505.113281 701.609375 505.054688 701.71875 504.992188 C 702.113281 504.734375 702.503906 504.476562 702.90625 504.246094 C 702.980469 504.207031 703.054688 504.171875 703.128906 504.121094 C 703.519531 503.890625 703.898438 503.667969 704.289062 503.449219 L 704.585938 503.277344 C 704.597656 503.265625 704.621094 503.253906 704.632812 503.242188 C 705.246094 502.898438 705.882812 502.601562 706.507812 502.285156 C 706.996094 502.039062 707.472656 501.769531 707.976562 501.539062 C 708.648438 501.230469 709.335938 500.960938 710.007812 500.667969 C 710.472656 500.472656 710.925781 500.261719 711.390625 500.089844 C 712.128906 499.808594 712.863281 499.578125 713.609375 499.332031 C 714.035156 499.183594 714.464844 499.027344 714.894531 498.890625 C 715.675781 498.65625 716.472656 498.460938 717.257812 498.265625 C 717.660156 498.167969 718.066406 498.046875 718.46875 497.949219 C 719.289062 497.765625 720.109375 497.617188 720.941406 497.46875 C 721.335938 497.394531 721.726562 497.308594 722.117188 497.25 C 722.976562 497.113281 723.855469 497.027344 724.726562 496.941406 C 725.09375 496.90625 725.460938 496.84375 725.828125 496.808594 C 726.746094 496.734375 727.675781 496.699219 728.605469 496.671875 C 728.9375 496.660156 729.269531 496.625 729.609375 496.625 C 730.785156 496.613281 731.960938 496.636719 733.148438 496.6875 C 733.246094 496.6875 733.34375 496.6875 733.445312 496.6875 C 734.277344 496.734375 735.121094 496.785156 735.953125 496.871094 C 740.828125 497.324219 745.808594 498.386719 750.804688 500.03125 C 751.847656 500.375 752.875 500.730469 753.914062 501.121094 C 758.382812 502.800781 762.925781 504.957031 767.382812 507.503906 C 770.480469 509.28125 773.652344 511.300781 776.800781 513.53125 C 777.042969 513.703125 777.300781 513.839844 777.558594 513.949219 C 777.621094 513.972656 777.691406 513.996094 777.753906 514.035156 C 778.011719 514.132812 778.269531 514.207031 778.523438 514.253906 C 778.550781 514.253906 778.5625 514.265625 778.585938 514.265625 C 778.808594 514.304688 779.039062 514.328125 779.261719 514.328125 C 779.320312 514.328125 779.382812 514.316406 779.445312 514.316406 C 779.503906 514.316406 779.566406 514.304688 779.640625 514.304688 C 779.933594 514.277344 780.214844 514.230469 780.496094 514.144531 C 781.757812 513.765625 782.773438 512.820312 783.25 511.597656 C 783.644531 510.578125 784.058594 509.574219 784.464844 508.582031 C 784.671875 508.09375 784.878906 507.625 785.089844 507.148438 C 785.308594 506.644531 785.515625 506.144531 785.738281 505.652344 C 785.980469 505.101562 786.238281 504.574219 786.484375 504.035156 C 786.679688 503.621094 786.863281 503.203125 787.058594 502.800781 C 787.316406 502.273438 787.574219 501.769531 787.832031 501.253906 C 788.039062 500.851562 788.234375 500.421875 788.441406 500.019531 C 788.699219 499.515625 788.96875 499.027344 789.238281 498.523438 C 789.457031 498.117188 789.667969 497.714844 789.886719 497.308594 C 790.15625 496.808594 790.449219 496.332031 790.71875 495.828125 C 790.941406 495.449219 791.148438 495.054688 791.367188 494.6875 C 791.636719 494.222656 791.933594 493.769531 792.203125 493.304688 C 792.433594 492.910156 792.667969 492.519531 792.910156 492.140625 C 793.179688 491.699219 793.476562 491.28125 793.746094 490.839844 C 794 490.449219 794.246094 490.058594 794.503906 489.675781 C 794.785156 489.261719 795.078125 488.84375 795.359375 488.441406 C 795.617188 488.058594 795.886719 487.679688 796.144531 487.300781 C 796.425781 486.894531 796.71875 486.515625 797.011719 486.125 C 797.296875 485.746094 797.5625 485.363281 797.847656 484.996094 C 798.140625 484.617188 798.433594 484.25 798.738281 483.871094 C 799.019531 483.503906 799.316406 483.136719 799.597656 482.78125 C 799.890625 482.410156 800.210938 482.058594 800.503906 481.703125 C 800.796875 481.347656 801.089844 480.992188 801.398438 480.648438 C 801.691406 480.304688 801.996094 479.972656 802.300781 479.644531 C 802.621094 479.289062 802.925781 478.933594 803.257812 478.589844 C 803.550781 478.269531 803.859375 477.964844 804.164062 477.644531 C 804.496094 477.304688 804.824219 476.960938 805.15625 476.617188 C 805.460938 476.3125 805.78125 476.015625 806.085938 475.722656 C 806.429688 475.390625 806.773438 475.0625 807.113281 474.742188 C 807.421875 474.460938 807.738281 474.191406 808.046875 473.910156 C 808.398438 473.589844 808.742188 473.273438 809.097656 472.964844 C 809.132812 472.929688 809.183594 472.90625 809.21875 472.867188 C 817.9375 465.34375 827.757812 460.421875 838.386719 458.214844 L 838.640625 458.164062 C 839.082031 458.082031 839.523438 457.996094 839.988281 457.910156 C 840.992188 457.726562 842.007812 457.566406 843.039062 457.417969 C 843.0625 457.417969 843.085938 457.417969 843.097656 457.40625 C 844.152344 457.285156 845.203125 457.171875 846.246094 457.085938 C 850.1875 456.78125 854.214844 456.867188 858.21875 457.332031 C 879.890625 459.832031 899.566406 473.492188 909.570312 492.996094 C 921.03125 515.34375 919.085938 542.46875 904.109375 569.4375 Z M 904.109375 569.4375 " fill-opacity="1" fill-rule="nonzero"/></g><path fill="#000000" d="M 824.769531 605.273438 C 831.246094 598.484375 833.425781 588.550781 830.15625 579.53125 C 825.882812 567.769531 813.480469 560.96875 801.285156 563.726562 C 794.480469 565.269531 788.796875 569.414062 785.273438 575.402344 C 781.792969 581.308594 780.902344 588.476562 782.824219 595.066406 C 785.40625 603.851562 792.628906 610.46875 801.398438 612.402344 L 805.363281 649.464844 C 805.402344 649.785156 805.460938 650.089844 805.570312 650.382812 C 805.878906 651.265625 806.453125 652.039062 807.25 652.578125 C 807.960938 653.054688 808.792969 653.300781 809.636719 653.300781 C 810.039062 653.300781 810.445312 653.238281 810.835938 653.128906 L 838.371094 645.054688 C 839.585938 644.699219 840.578125 643.828125 841.078125 642.679688 C 841.59375 641.527344 841.570312 640.214844 841.03125 639.074219 Z M 813.335938 643.449219 L 809.5625 608.1875 C 809.34375 606.117188 807.664062 604.511719 805.597656 604.367188 C 798.8125 603.902344 792.972656 599.195312 791.050781 592.652344 C 789.777344 588.269531 790.339844 583.683594 792.65625 579.753906 C 794.96875 575.820312 798.703125 573.101562 803.171875 572.082031 C 804.324219 571.824219 805.472656 571.703125 806.625 571.703125 C 813.335938 571.703125 819.75 575.96875 822.101562 582.449219 C 824.523438 589.113281 822.394531 596.550781 816.824219 600.921875 C 815.269531 602.148438 814.804688 604.316406 815.671875 606.105469 L 831.113281 638.21875 Z M 813.335938 643.449219 " fill-opacity="1" fill-rule="nonzero"/></svg>